<?xml version="1.0" encoding="utf-8" standalone="yes"?>
<!DOCTYPE svg PUBLIC "-//W3C//DTD SVG 1.1//EN" "http://www.w3.org/Graphics/SVG/1.1/DTD/svg11.dtd">
<svg width="720" height="852" viewBox="0 0 720 852" style="fill:none;stroke:none;fill-rule:evenodd;clip-rule:evenodd;stroke-linecap:round;stroke-linejoin:round;stroke-miterlimit:1.5;" version="1.1" xmlns="http://www.w3.org/2000/svg" xmlns:xlink="http://www.w3.org/1999/xlink"><style class="text-font-style fontImports" data-font-family="Shantell Sans">@import url('https://fonts.googleapis.com/css2?family=Shantell+Sans:wght@300..800&amp;display=block');</style><g id="items" style="isolation: isolate"><g id="blend" style="mix-blend-mode: normal"><g id="g-root-cp_7_border-7_1ursjnr1gs4but-fill" data-item-order="-508022" transform="translate(158, 122)"><g id="cp_7_border-7_1ursjnr1gs4but-fill" stroke="none" fill="#82489d"><g><path d="M 544 97.5L 544.2 97.8L 518 91.9L 526.5 107.3ZM 518 91.9L 503 102.5L 522.4 113.3L 544.2 97.8ZM 522.4 113.3L 528 17.5L 508.1 14.2L 503 102.5ZM 508.1 14.2L 484.1 102.3L 503.9 105.7L 528 17.5ZM 503.9 105.7L 510.3 12.7L 490.5 9L 484.1 102.3ZM 490.5 9L 459.9 108L 480 111L 510.3 12.7ZM 480 111L 479.6 14L 459.6 11.4L 459.9 108ZM 459.6 11.4L 435.7 99.7L 455.3 103.7L 479.6 14ZM 455.3 103.7L 468 12.1L 448.5 6.9L 435.7 99.7ZM 448.5 6.9L 411.1 99.1L 430.7 104L 468 12.1ZM 430.7 104L 440.6 9.9L 420.9 6.1L 411.1 99.1ZM 420.9 6.1L 393.2 105.3L 413.1 108.5L 440.6 9.9ZM 413.1 108.5L 416.8 13L 396.9 10.2L 393.2 105.3ZM 396.9 10.2L 373.8 103.4L 393.7 106.3L 416.8 13ZM 393.7 106.3L 398.2 12.3L 378.3 8.9L 373.8 103.4ZM 378.3 8.9L 349.5 102.1L 369.3 105.8L 398.2 12.3ZM 369.3 105.8L 375.8 10L 356 6.5L 349.5 102.1ZM 356 6.5L 327.8 103.6L 347.5 107.2L 375.8 10ZM 347.5 107.2L 354.6 17L 334.9 13.1L 327.8 103.6ZM 334.9 13.1L 304.4 106.4L 324.2 110.2L 354.6 17ZM 324.2 110.2L 330 13.8L 310.2 10.7L 304.4 106.4ZM 310.2 10.7L 286.4 102.5L 306.3 105.4L 330 13.8ZM 306.3 105.4L 310 11.3L 290.1 7.8L 286.4 102.5ZM 290.1 7.8L 258.2 108L 277.9 111.9L 310 11.3ZM 277.9 111.9L 286.4 12.7L 266.7 9L 258.2 108ZM 266.7 9L 237.4 110L 257.2 113.8L 286.4 12.7ZM 257.2 113.8L 266.5 16.8L 246.7 13.5L 237.4 110ZM 246.7 13.5L 223.7 110L 243.6 113L 266.5 16.8ZM 243.6 113L 250.1 10.3L 230.3 6.5L 223.7 110ZM 230.3 6.5L 196.2 110.7L 215.8 115.2L 250.1 10.3ZM 215.8 115.2L 229.3 11.2L 209.8 6.2L 196.2 110.7ZM 209.8 6.2L 170.8 107.8L 190.4 112.5L 229.3 11.2ZM 190.4 112.5L 200.6 12.5L 180.9 8.8L 170.8 107.8ZM 180.9 8.8L 153.7 108.2L 173.5 111.5L 200.6 12.5ZM 173.5 111.5L 179.6 17.7L 159.8 14.1L 153.7 108.2ZM 159.8 14.1L 131.3 110.1L 150.9 114.5L 179.6 17.7ZM 150.9 114.5L 165.6 14.7L 146 10.3L 131.3 110.1ZM 146 10.3L 115.9 109L 135.6 112.8L 165.6 14.7ZM 135.6 112.8L 143.6 17.1L 123.9 12.6L 115.9 109ZM 123.9 12.6L 87.4 109.6L 107.1 114L 143.6 17.1ZM 107.1 114L 115.1 12.1L 95.4 8.6L 87.4 109.6ZM 95.4 8.6L 68.8 103.8L 88.7 107.1L 115.1 12.1ZM 88.7 107.1L 94.5 12.5L 74.7 8.9L 68.8 103.8ZM 74.7 8.9L 46.7 101.6L 66.6 105L 94.5 12.5ZM 66.6 105L 70.4 15.9L 50.5 12.7L 46.7 101.6ZM 50.5 12.7L 26.1 97.6L 46 100.9L 70.4 15.9ZM 46 100.9L 50.4 17.1L 30.7 11.1L 26.1 97.6ZM 30.7 11.1L 3.2 56.4L 22.3 63.4L 50.4 17.1ZM 22.3 63.4L 23.7 55L 3.9 51.8L 3.2 56.4Z" fill-rule="nonzero"></path></g></g></g><g id="g-root-cp_7_icon_1lw5jev1gs4cnj-fill" data-item-order="-507999" transform="translate(234.65234375, 122)"></g><g id="g-root-cp_6_border-6_1hgc1af1gs4dft-fill" data-item-order="-507978" transform="translate(134, 218)"><g id="cp_6_border-6_1hgc1af1gs4dft-fill" stroke="none" fill="#914673"><g><path d="M 563.4 101.1L 563.4 97L 543.5 87.9L 543.4 100.9ZM 543.5 87.9L 526.5 102.7L 546.3 112L 563.4 97ZM 546.3 112L 549.2 10.3L 529.2 7.6L 526.5 102.7ZM 529.2 7.6L 504.7 104.7L 524.6 107.8L 549.2 10.3ZM 524.6 107.8L 530.5 14.5L 510.7 10.2L 504.7 104.7ZM 510.7 10.2L 476.9 98.7L 496.5 103.5L 530.5 14.5ZM 496.5 103.5L 507.1 12.4L 487.5 7.9L 476.9 98.7ZM 487.5 7.9L 455 101.1L 474.5 106L 507.1 12.4ZM 474.5 106L 489 15.6L 469.5 10.7L 455 101.1ZM 469.5 10.7L 436.4 105.2L 456.1 109.6L 489 15.6ZM 456.1 109.6L 466.6 9.8L 446.9 5.6L 436.4 105.2ZM 446.9 5.6L 415.9 102L 435.8 105.5L 466.6 9.8ZM 435.8 105.5L 439.6 16.2L 419.7 13.1L 415.9 102ZM 419.7 13.1L 394.4 106.4L 414.2 109.8L 439.6 16.2ZM 414.2 109.8L 421.8 16.3L 402.1 12.8L 394.4 106.4ZM 402.1 12.8L 375.7 108.4L 395.5 111.8L 421.8 16.3ZM 395.5 111.8L 402 16L 382.2 12.3L 375.7 108.4ZM 382.2 12.3L 352 108.4L 371.8 112.1L 402 16ZM 371.8 112.1L 378.3 12.6L 358.5 9.1L 352 108.4ZM 358.5 9.1L 329.7 109.2L 349.4 112.8L 378.3 12.6ZM 349.4 112.8L 357.7 16.5L 338 12.7L 329.7 109.2ZM 338 12.7L 309 108L 329 111L 357.7 16.5ZM 329 111L 329.4 11L 309.4 8.4L 309 108ZM 309.4 8.4L 283.6 107.1L 303.4 110.4L 329.4 11ZM 303.4 110.4L 310.5 13.8L 290.7 10.2L 283.6 107.1ZM 290.7 10.2L 263.6 102.5L 283.4 106.2L 310.5 13.8ZM 283.4 106.2L 291.7 12.6L 272 8.5L 263.6 102.5ZM 272 8.5L 240.2 105.4L 260 109.5L 291.7 12.6ZM 260 109.5L 268.5 14L 248.7 10.2L 240.2 105.4ZM 248.7 10.2L 219.7 106.8L 239.5 110.5L 268.5 14ZM 239.5 110.5L 247.4 11.6L 227.7 7.9L 219.7 106.8ZM 227.7 7.9L 197.6 107.2L 217.4 110.9L 247.4 11.6ZM 217.4 110.9L 224.3 9.3L 204.5 5.5L 197.6 107.2ZM 204.5 5.5L 173.5 104.4L 193.2 108.2L 224.3 9.3ZM 193.2 108.2L 200 11.8L 180.2 8.4L 173.5 104.4ZM 180.2 8.4L 153.7 104.2L 173.5 107.7L 200 11.8ZM 173.5 107.7L 181.4 12.6L 161.7 8.7L 153.7 104.2ZM 161.7 8.7L 129.8 108.6L 149.4 112.7L 181.4 12.6ZM 149.4 112.7L 159.6 16.7L 139.9 12.4L 129.8 108.6ZM 139.9 12.4L 109.3 104.4L 129 108.6L 159.6 16.7ZM 129 108.6L 138.8 10L 119.1 6L 109.3 104.4ZM 119.1 6L 87.9 105.3L 107.6 109.3L 138.8 10ZM 107.6 109.3L 117.4 12.4L 97.7 7.9L 87.9 105.3ZM 97.7 7.9L 64 102L 83.7 106.3L 117.4 12.4ZM 83.7 106.3L 91.1 11.2L 71.3 8.2L 64 102ZM 71.3 8.2L 49.2 105.9L 69 108.9L 91.1 11.2ZM 69 108.9L 76.5 11.4L 56.8 7.3L 49.2 105.9ZM 56.8 7.3L 25.2 98.3L 45.1 101.9L 76.5 11.4ZM 45.1 101.9L 47.6 13.5L 27.7 9.6L 25.2 98.3ZM 27.7 9.6L 5.5 67.4L 25.2 71.9L 47.6 13.5ZM 25.2 71.9L 27.6 43.9L 7.7 42.2L 5.5 67.4Z" fill-rule="nonzero"></path></g></g></g><g id="g-root-cp_6_icon_3_1d0ij5z1gs4e83-fill" data-item-order="-507955" transform="translate(210.65234375, 218)"></g><g id="g-root-cp_5_border-5_145i0071gs4bv1-fill" data-item-order="-507934" transform="translate(110, 314)"><g id="cp_5_border-5_145i0071gs4bv1-fill" stroke="none" fill="#954643"><g><path d="M 584.8 103L 585.9 75.8L 566.1 69.3L 564.8 102.2ZM 566.1 69.3L 545.7 99.7L 564.8 107.1L 585.9 75.8ZM 564.8 107.1L 578.6 15.2L 559.1 10.1L 545.7 99.7ZM 559.1 10.1L 524 103L 543.7 107.5L 578.6 15.2ZM 543.7 107.5L 551.9 16.8L 532.1 12.8L 524 103ZM 532.1 12.8L 502 106.6L 521.7 110.7L 551.9 16.8ZM 521.7 110.7L 531.3 12.8L 511.5 9.1L 502 106.6ZM 511.5 9.1L 484.4 106.3L 504.2 109.7L 531.3 12.8ZM 504.2 109.7L 510.5 14.9L 490.7 11.5L 484.4 106.3ZM 490.7 11.5L 464.7 103.4L 484.6 106.4L 510.5 14.9ZM 484.6 106.4L 486.2 15.2L 466.2 12.3L 464.7 103.4ZM 466.2 12.3L 440.5 106.8L 460.4 109.9L 486.2 15.2ZM 460.4 109.9L 463.8 13.9L 443.9 10.2L 440.5 106.8ZM 443.9 10.2L 413.1 100.6L 432.9 104.5L 463.8 13.9ZM 432.9 104.5L 439.3 9.6L 419.5 6.3L 413.1 100.6ZM 419.5 6.3L 394.1 102.6L 414 105.8L 439.3 9.6ZM 414 105.8L 419.4 12.9L 399.5 9.9L 394.1 102.6ZM 399.5 9.9L 374.9 109.3L 394.9 112L 419.4 12.9ZM 394.9 112L 397.6 14L 377.7 10.9L 374.9 109.3ZM 377.7 10.9L 351.4 101.7L 371.4 104.7L 397.6 14ZM 371.4 104.7L 372.4 15.5L 352.4 12.8L 351.4 101.7ZM 352.4 12.8L 328.7 103.6L 348.5 107L 372.4 15.5ZM 348.5 107L 356.5 13L 336.8 9.6L 328.7 103.6ZM 336.8 9.6L 311.2 106L 331.2 108.6L 356.5 13ZM 331.2 108.6L 330.6 9.3L 310.5 6.9L 311.2 106ZM 310.5 6.9L 286 102.7L 305.8 106L 330.6 9.3ZM 305.8 106L 313.5 16.4L 293.8 11.9L 286 102.7ZM 293.8 11.9L 258.6 105.9L 278 111.1L 313.5 16.4ZM 278 111.1L 293 15.4L 273.6 10.3L 258.6 105.9ZM 273.6 10.3L 238.1 103.5L 257.8 108.1L 293 15.4ZM 257.8 108.1L 266.6 9.9L 246.9 6.5L 238.1 103.5ZM 246.9 6.5L 219.9 110.8L 239.8 113.6L 266.6 9.9ZM 239.8 113.6L 242.5 16.2L 222.6 13.7L 219.9 110.8ZM 222.6 13.7L 200.4 111L 220.4 113.6L 242.5 16.2ZM 220.4 113.6L 223.5 14.1L 203.6 10.6L 200.4 111ZM 203.6 10.6L 171 107.8L 190.7 112.1L 223.5 14.1ZM 190.7 112.1L 201.7 11.9L 182 8.4L 171 107.8ZM 182 8.4L 156.6 109L 176.4 112.3L 201.7 11.9ZM 176.4 112.3L 184.1 12L 164.3 8.4L 156.6 109ZM 164.3 8.4L 136.4 105.2L 156.1 109.1L 184.1 12ZM 156.1 109.1L 166.4 16.5L 146.8 12.2L 136.4 105.2ZM 146.8 12.2L 114.7 106.6L 134.5 110.3L 166.4 16.5ZM 134.5 110.3L 138.8 13.2L 118.9 9.8L 114.7 106.6ZM 118.9 9.8L 90.5 105L 110.3 108.5L 138.8 13.2ZM 110.3 108.5L 116 11.7L 96.1 8.4L 90.5 105ZM 96.1 8.4L 70.2 103L 90 106.3L 116 11.7ZM 90 106.3L 96.2 12.9L 76.4 8.9L 70.2 103ZM 76.4 8.9L 44.3 100.8L 63.9 105.4L 96.2 12.9ZM 63.9 105.4L 75.4 10.6L 55.7 6.6L 44.3 100.8ZM 55.7 6.6L 29.5 97.9L 49.3 101.5L 75.4 10.6ZM 49.3 101.5L 56.4 14.6L 36.9 8.2L 29.5 97.9ZM 36.9 8.2L 4.2 61.8L 22.4 70.4L 56.4 14.6ZM 22.4 70.4L 28.7 52L 9.8 45.5L 4.2 61.8Z" fill-rule="nonzero"></path></g></g></g><g id="g-root-cp_5_icon_6_zpohvr1gs4cnb-fill" data-item-order="-507911" transform="translate(186.65234375, 314)"></g><g id="g-root-cp_4_border-4_v9uzrb1gs4dfl-fill" data-item-order="-507890" transform="translate(86, 410)"><g id="cp_4_border-4_v9uzrb1gs4dfl-fill" stroke="none" fill="#815d3b"><g><path d="M 610.1 109.6L 611.9 102.5L 595.1 87.6L 590.7 104.6ZM 595.1 87.6L 571.6 96.6L 591.1 110.5L 611.9 102.5ZM 591.1 110.5L 594.4 14.9L 574.4 11.9L 571.6 96.6ZM 574.4 11.9L 551.4 99.1L 571.1 102.5L 594.4 14.9ZM 571.1 102.5L 578.8 17.4L 559.1 13.5L 551.4 99.1ZM 559.1 13.5L 531.4 101L 551.1 104.9L 578.8 17.4ZM 551.1 104.9L 558.8 14.3L 539.1 9.7L 531.4 101ZM 539.1 9.7L 501.2 106.1L 520.8 111.1L 558.8 14.3ZM 520.8 111.1L 533.2 17.1L 513.5 13L 501.2 106.1ZM 513.5 13L 487.9 102.3L 507.7 105.8L 533.2 17.1ZM 507.7 105.8L 513.6 17.6L 493.9 13.6L 487.9 102.3ZM 493.9 13.6L 464.2 99.7L 484 103.6L 513.6 17.6ZM 484 103.6L 489.2 11.8L 469.4 8.3L 464.2 99.7ZM 469.4 8.3L 442.2 101.3L 461.9 105.1L 489.2 11.8ZM 461.9 105.1L 470.8 10L 451.1 6L 442.2 101.3ZM 451.1 6L 421.3 101.2L 441.1 104.8L 470.8 10ZM 441.1 104.8L 445.8 17.2L 426 13.4L 421.3 101.2ZM 426 13.4L 395.2 106.6L 414.9 110.7L 445.8 17.2ZM 414.9 110.7L 423.8 13.7L 404 10.4L 395.2 106.6ZM 404 10.4L 379.4 109.2L 399.2 112.2L 423.8 13.7ZM 399.2 112.2L 405.4 12L 385.6 7.8L 379.4 109.2ZM 385.6 7.8L 350.2 102.2L 369.8 106.9L 405.4 12ZM 369.8 106.9L 380.3 12.3L 360.6 8.6L 350.2 102.2ZM 360.6 8.6L 334.7 105.8L 354.5 109.2L 380.3 12.3ZM 354.5 109.2L 362.6 11.9L 342.9 8L 334.7 105.8ZM 342.9 8L 313.2 101.7L 333.1 105.2L 362.6 11.9ZM 333.1 105.2L 337 10.1L 317.2 7.1L 313.2 101.7ZM 317.2 7.1L 290.4 109.5L 310.4 112.2L 337 10.1ZM 310.4 112.2L 311.6 12.8L 291.6 10.1L 290.4 109.5ZM 291.6 10.1L 266.3 104.7L 286.2 107.8L 311.6 12.8ZM 286.2 107.8L 290.5 15.1L 270.6 11.8L 266.3 104.7ZM 270.6 11.8L 242.5 109.1L 262.2 112.8L 290.5 15.1ZM 262.2 112.8L 271.1 13.2L 251.4 9.6L 242.5 109.1ZM 251.4 9.6L 223.7 109.6L 243.6 112.7L 271.1 13.2ZM 243.6 112.7L 247.9 17.4L 228 13.5L 223.7 109.6ZM 228 13.5L 196.1 105.2L 215.8 109.4L 247.9 17.4ZM 215.8 109.4L 224.1 11.6L 204.3 8.3L 196.1 105.2ZM 204.3 8.3L 179.4 105.7L 199.3 108.5L 224.1 11.6ZM 199.3 108.5L 202.2 14.1L 182.3 11.4L 179.4 105.7ZM 182.3 11.4L 158.2 107.4L 178 110.4L 202.2 14.1ZM 178 110.4L 183.2 16L 163.4 12L 158.2 107.4ZM 163.4 12L 129.2 105.9L 148.9 110.1L 183.2 16ZM 148.9 110.1L 156.1 13.6L 136.3 10.2L 129.2 105.9ZM 136.3 10.2L 109.1 106L 128.8 110L 156.1 13.6ZM 128.8 110L 140 17.6L 120.3 13.7L 109.1 106ZM 120.3 13.7L 93.3 110.9L 113.3 113.7L 140 17.6ZM 113.3 113.7L 113.6 11.8L 93.6 9.1L 93.3 110.9ZM 93.6 9.1L 66.7 109.3L 86.3 113.3L 113.6 11.8ZM 86.3 113.3L 100.9 13.1L 81.5 7.9L 66.7 109.3ZM 81.5 7.9L 42.7 104.4L 62.2 109.3L 100.9 13.1ZM 62.2 109.3L 72.2 17.4L 52.6 12.7L 42.7 104.4ZM 52.6 12.7L 21.8 94.1L 41.3 99L 72.2 17.4ZM 41.3 99L 52 20.6L 32.8 13.5L 21.8 94.1ZM 32.8 13.5L 3.7 58.7L 21.9 67.5L 52 20.6ZM 21.9 67.5L 26.9 52.4L 8 46.1L 3.7 58.7Z" fill-rule="nonzero"></path></g></g></g><g id="g-root-cp_4_icon_9_hz0yh31gs4bur-fill" data-item-order="-507867" transform="translate(162.65234375, 410)"></g><g id="g-root-cp_3_border-3_4nkg3r1gs4dfp-fill" data-item-order="-507846" transform="translate(62, 506)"><g id="cp_3_border-3_4nkg3r1gs4dfp-fill" stroke="none" fill="#776f30"><g><path d="M 640.1 99L 636.1 91.6L 612 88.8L 622.4 108.4ZM 612 88.8L 599.4 103.2L 619.5 110.6L 636.1 91.6ZM 619.5 110.6L 617.8 13.5L 597.8 11.7L 599.4 103.2ZM 597.8 11.7L 579.9 101.3L 600 103L 617.8 13.5ZM 600 103L 597.8 9.1L 577.7 6.8L 579.9 101.3ZM 577.7 6.8L 552.4 105.7L 572.2 109.1L 597.8 9.1ZM 572.2 109.1L 581.4 9.2L 561.7 5.6L 552.4 105.7ZM 561.7 5.6L 534.5 102.1L 554.3 105.6L 581.4 9.2ZM 554.3 105.6L 561.5 10.9L 541.7 7L 534.5 102.1ZM 541.7 7L 510.5 104.9L 530.4 108.4L 561.5 10.9ZM 530.4 108.4L 534.2 11.4L 514.3 8.3L 510.5 104.9ZM 514.3 8.3L 488.1 104.8L 508.1 107.5L 534.2 11.4ZM 508.1 107.5L 508.6 14.5L 488.6 11.3L 488.1 104.8ZM 488.6 11.3L 458.6 104.2L 478.3 108.4L 508.6 14.5ZM 478.3 108.4L 488.9 11.7L 469.3 7.7L 458.6 104.2ZM 469.3 7.7L 439.8 106.1L 459.6 109.8L 488.9 11.7ZM 459.6 109.8L 466.9 13.1L 447.1 9.3L 439.8 106.1ZM 447.1 9.3L 418.2 102.5L 437.9 106.4L 466.9 13.1ZM 437.9 106.4L 446 13.7L 426.3 10.3L 418.2 102.5ZM 426.3 10.3L 400.6 106.7L 420.6 109.4L 446 13.7ZM 420.6 109.4L 421.8 14.4L 401.9 11.1L 400.6 106.7ZM 401.9 11.1L 371.5 103.4L 391.1 107.9L 421.8 14.4ZM 391.1 107.9L 403.5 10L 383.8 6.3L 371.5 103.4ZM 383.8 6.3L 358.9 106.4L 378.8 109.3L 403.5 10ZM 378.8 109.3L 382.8 14.7L 362.9 11.1L 358.9 106.4ZM 362.9 11.1L 333.1 103.1L 352.9 107.1L 382.8 14.7ZM 352.9 107.1L 360.5 16.8L 340.8 12.4L 333.1 103.1ZM 340.8 12.4L 308 102.8L 327.5 107.8L 360.5 16.8ZM 327.5 107.8L 341.2 17.4L 321.7 12.5L 308 102.8ZM 321.7 12.5L 288.3 104.6L 308.1 108.6L 341.2 17.4ZM 308.1 108.6L 313.4 11.4L 293.5 8.1L 288.3 104.6ZM 293.5 8.1L 266.2 107.7L 286 111.1L 313.4 11.4ZM 286 111.1L 293.7 9.9L 273.9 6.4L 266.2 107.7ZM 273.9 6.4L 245.3 108L 265.1 111.5L 293.7 9.9ZM 265.1 111.5L 272.2 9.6L 252.4 6L 245.3 108ZM 252.4 6L 223.8 104L 243.6 107.2L 272.2 9.6ZM 243.6 107.2L 247.6 10.5L 227.7 7.7L 223.8 104ZM 227.7 7.7L 203.1 109.7L 223 112.8L 247.6 10.5ZM 223 112.8L 230.5 11.4L 210.7 7.6L 203.1 109.7ZM 210.7 7.6L 178.6 107.6L 198.5 111.3L 230.5 11.4ZM 198.5 111.3L 203.6 13.4L 183.7 10.5L 178.6 107.6ZM 183.7 10.5L 160.5 106.1L 180.5 108.5L 203.6 13.4ZM 180.5 108.5L 180.9 16.6L 160.9 13.7L 160.5 106.1ZM 160.9 13.7L 135.2 104.6L 154.9 108.3L 180.9 16.6ZM 154.9 108.3L 163.5 16.7L 143.8 12.8L 135.2 104.6ZM 143.8 12.8L 113.8 108.9L 133.6 112.4L 163.5 16.7ZM 133.6 112.4L 138.7 16.8L 118.9 13.3L 113.8 108.9ZM 118.9 13.3L 88.9 110L 108.7 113.6L 138.7 16.8ZM 108.7 113.6L 115.3 15.1L 95.4 12.1L 88.9 110ZM 95.4 12.1L 73 107.9L 93 110.3L 115.3 15.1ZM 93 110.3L 93.2 13.1L 73.2 10.3L 73 107.9ZM 73.2 10.3L 47.6 99.7L 67.3 103.3L 93.2 13.1ZM 67.3 103.3L 75 11.1L 55.2 7.5L 47.6 99.7ZM 55.2 7.5L 28.5 99L 48.4 102.1L 75 11.1ZM 48.4 102.1L 49.9 21.1L 30 17.1L 28.5 99ZM 30 17.1L 10.6 66.6L 30.3 71L 49.9 21.1ZM 30.3 71L 32.6 36.9L 12.6 35.6L 10.6 66.6Z" fill-rule="nonzero"></path></g></g></g><g id="g-root-cp_3_icon_12_1ut1htz1gs4e1b-fill" data-item-order="-507823" transform="translate(138.65234375, 506)"></g><g id="g-root-cp_2_border-2_1qdugsn1gs4bnt-fill" data-item-order="-507802" transform="translate(38, 602)"><g id="cp_2_border-2_1qdugsn1gs4bnt-fill" stroke="none" fill="#60703f"><g><path d="M 657.9 108L 663.1 100.3L 649.7 84.4L 641.3 96.7ZM 649.7 84.4L 619.6 98L 637.8 111.7L 663.1 100.3ZM 637.8 111.7L 651.9 12.9L 632.4 8L 619.6 98ZM 632.4 8L 596.6 104L 616.5 108.1L 651.9 12.9ZM 616.5 108.1L 621 16.4L 601.2 12.8L 596.6 104ZM 601.2 12.8L 571.6 105.3L 591.4 109L 621 16.4ZM 591.4 109L 597.6 10.4L 577.8 7.2L 571.6 105.3ZM 577.8 7.2L 553.4 101.3L 573.2 104.5L 597.6 10.4ZM 573.2 104.5L 580.2 9.6L 560.4 6.4L 553.4 101.3ZM 560.4 6.4L 536 105.3L 555.9 108L 580.2 9.6ZM 555.9 108L 558.2 11.5L 538.2 8.1L 536 105.3ZM 538.2 8.1L 506.2 107.1L 526 110.8L 558.2 11.5ZM 526 110.8L 532.2 10.4L 512.4 7.2L 506.2 107.1ZM 512.4 7.2L 485.8 107L 505.5 110.6L 532.2 10.4ZM 505.5 110.6L 515.4 12.2L 495.8 8L 485.8 107ZM 495.8 8L 464.3 102L 484 106.2L 515.4 12.2ZM 484 106.2L 493.2 13L 473.5 8.9L 464.3 102ZM 473.5 8.9L 441.2 107.3L 461 111.1L 493.2 13ZM 461 111.1L 466.7 14.9L 446.9 12.2L 441.2 107.3ZM 446.9 12.2L 426.6 106.5L 446.6 108.8L 466.7 14.9ZM 446.6 108.8L 448.1 10.9L 428.1 7.8L 426.6 106.5ZM 428.1 7.8L 399.2 104.8L 419 108.1L 448.1 10.9ZM 419 108.1L 422.7 14.7L 402.8 11.9L 399.2 104.8ZM 402.8 11.9L 379.7 104L 399.6 107L 422.7 14.7ZM 399.6 107L 405.2 9.1L 385.3 5.7L 379.7 104ZM 385.3 5.7L 356.6 104.5L 376.6 107.4L 405.2 9.1ZM 376.6 107.4L 377.8 8.4L 357.8 6.1L 356.6 104.5ZM 357.8 6.1L 335.6 105.4L 355.5 107.9L 377.8 8.4ZM 355.5 107.9L 357.9 11.5L 337.9 8.3L 335.6 105.4ZM 337.9 8.3L 308.4 104.1L 328.2 107.7L 357.9 11.5ZM 328.2 107.7L 333.7 16.7L 313.9 13.3L 308.4 104.1ZM 313.9 13.3L 286.1 109.9L 305.7 113.9L 333.7 16.7ZM 305.7 113.9L 317.3 14.9L 297.7 10.8L 286.1 109.9ZM 297.7 10.8L 268.2 110.5L 288.1 113.4L 317.3 14.9ZM 288.1 113.4L 288.8 14.9L 268.8 12.1L 268.2 110.5ZM 268.8 12.1L 243.6 104.9L 263.2 108.9L 288.8 14.9ZM 263.2 108.9L 275.8 14.9L 256.3 9.8L 243.6 104.9ZM 256.3 9.8L 218.6 106.2L 238.1 111.1L 275.8 14.9ZM 238.1 111.1L 250.2 15L 230.6 10.8L 218.6 106.2ZM 230.6 10.8L 201.1 107.6L 220.9 111.1L 250.2 15ZM 220.9 111.1L 226.4 11.3L 206.5 8.1L 201.1 107.6ZM 206.5 8.1L 179.9 105.6L 199.6 109.1L 226.4 11.3ZM 199.6 109.1L 207.8 17.5L 188 13.6L 179.9 105.6ZM 188 13.6L 159.3 104.8L 179 108.6L 207.8 17.5ZM 179 108.6L 186.9 12.6L 167.1 8.7L 159.3 104.8ZM 167.1 8.7L 135.8 109.7L 155.6 113.4L 186.9 12.6ZM 155.6 113.4L 162.6 15.1L 142.9 11L 135.8 109.7ZM 142.9 11L 109.5 106.5L 129 111.3L 162.6 15.1ZM 129 111.3L 142.6 14.3L 123 9.7L 109.5 106.5ZM 123 9.7L 90.1 108.6L 109.8 112.7L 142.6 14.3ZM 109.8 112.7L 118.1 9.5L 98.4 5.4L 90.1 108.6ZM 98.4 5.4L 63.5 107.6L 83.3 111.6L 118.1 9.5ZM 83.3 111.6L 89.7 15.9L 69.9 12.2L 63.5 107.6ZM 69.9 12.2L 42.2 101.5L 61.7 106.1L 89.7 15.9ZM 61.7 106.1L 76.3 18.2L 56.8 13.4L 42.2 101.5ZM 56.8 13.4L 28.8 97.9L 48.7 101.4L 76.3 18.2ZM 48.7 101.4L 50.3 17.4L 30.4 11.4L 28.8 97.9ZM 30.4 11.4L 3.9 53.3L 20.4 64.6L 50.3 17.4ZM 20.4 64.6L 28.3 54.1L 12.3 42.1L 3.9 53.3Z" fill-rule="nonzero"></path></g></g></g><g id="g-root-cp_2_icon_15_1ly0yo71gs4cg3-fill" data-item-order="-507779" transform="translate(114.65234375, 602)"></g><g id="g-root-cp_1_border-1_1d2dyfb1gs4d8t-fill" data-item-order="-507758" transform="translate(14, 698)"><g id="cp_1_border-1_1d2dyfb1gs4d8t-fill" stroke="none" fill="#41735b"><g><path d="M 5.2 53.2L 4.5 55.7L 23.3 62.8L 24.5 58.3ZM 23.3 62.8L 44.1 20.7L 23.8 16.7L 4.5 55.7ZM 23.8 16.7L 29.8 101.5L 49.9 102.6L 44.1 20.7ZM 49.9 102.6L 67 11.2L 46.9 9.7L 29.8 101.5ZM 46.9 9.7L 50.5 102.6L 70.6 104.4L 67 11.2ZM 70.6 104.4L 90.4 14.7L 70.3 12.8L 50.5 102.6ZM 70.3 12.8L 72.4 99.6L 92.4 101.5L 90.4 14.7ZM 92.4 101.5L 112.7 8.3L 92.8 6.1L 72.4 99.6ZM 92.8 6.1L 92.4 107L 112.4 109.3L 112.7 8.3ZM 112.4 109.3L 133.9 14.3L 113.6 13.2L 92.4 107ZM 113.6 13.2L 124 103.9L 144.1 104.2L 133.9 14.3ZM 144.1 104.2L 157.3 11.7L 137.2 11L 124 103.9ZM 137.2 11L 143.9 106.8L 164 107.3L 157.3 11.7ZM 164 107.3L 175.7 11.1L 155.6 10.3L 143.9 106.8ZM 155.6 10.3L 159.5 99.3L 179.7 101.5L 175.7 11.1ZM 179.7 101.5L 203.1 14.7L 183.1 12L 159.5 99.3ZM 183.1 12L 183.3 106.1L 203.3 107.7L 203.1 14.7ZM 203.3 107.7L 218.8 15.4L 198.7 14.4L 183.3 106.1ZM 198.7 14.4L 204.8 104.4L 225 106.2L 218.8 15.4ZM 225 106.2L 247.3 16.6L 227.3 14.1L 204.8 104.4ZM 227.3 14.1L 227.3 99.7L 247.3 102.3L 247.3 16.6ZM 247.3 102.3L 271.8 10.1L 251.8 7.6L 227.3 99.7ZM 251.8 7.6L 252.4 99.7L 272.4 101.1L 271.8 10.1ZM 272.4 101.1L 285.1 11.6L 265 10.7L 252.4 99.7ZM 265 10.7L 270.1 106.5L 290.2 107.6L 285.1 11.6ZM 290.2 107.6L 305.5 13.7L 285.3 13.1L 270.1 106.5ZM 285.3 13.1L 295.3 106.4L 315.4 106.9L 305.5 13.7ZM 315.4 106.9L 330 8.5L 309.9 7.3L 295.3 106.4ZM 309.9 7.3L 312.2 104.1L 332.3 105.7L 330 8.5ZM 332.3 105.7L 349.8 11.6L 329.6 11L 312.2 104.1ZM 329.6 11L 341.6 107.5L 361.8 107.7L 349.8 11.6ZM 361.8 107.7L 375.8 13.9L 355.7 13.1L 341.6 107.5ZM 355.7 13.1L 361.8 100.2L 381.9 101.3L 375.8 13.9ZM 381.9 101.3L 398.1 8.2L 378 7.3L 361.8 100.2ZM 378 7.3L 386 104.3L 406.1 104.5L 398.1 8.2ZM 406.1 104.5L 416 8.8L 395.9 8.6L 386 104.3ZM 395.9 8.6L 403.1 100.3L 423.3 102.2L 416 8.8ZM 423.3 102.2L 446 16.2L 426.1 13.4L 403.1 100.3ZM 426.1 13.4L 423.9 102.2L 443.8 104.5L 446 16.2ZM 443.8 104.5L 462.7 13.7L 442.5 12.3L 423.9 102.2ZM 442.5 12.3L 448.8 105.6L 468.9 106.6L 462.7 13.7ZM 468.9 106.6L 485 12.8L 464.9 11.8L 448.8 105.6ZM 464.9 11.8L 471.6 104.9L 491.7 105.8L 485 12.8ZM 491.7 105.8L 506.8 11.9L 486.7 11.1L 471.6 104.9ZM 486.7 11.1L 494 101.6L 514.1 102.1L 506.8 11.9ZM 514.1 102.1L 525.1 15.2L 505 14.9L 494 101.6ZM 505 14.9L 514.3 106L 534.5 107.1L 525.1 15.2ZM 534.5 107.1L 554.2 16.1L 534.1 14.5L 514.3 106ZM 534.1 14.5L 538.4 105.4L 558.5 106.7L 554.2 16.1ZM 558.5 106.7L 574.8 14L 554.6 13.2L 538.4 105.4ZM 554.6 13.2L 563.9 105.2L 584 105.5L 574.8 14ZM 584 105.5L 596.3 9.7L 576.3 8.9L 563.9 105.2ZM 576.3 8.9L 581.4 106.2L 601.5 107.1L 596.3 9.7ZM 601.5 107.1L 616 8.3L 595.9 7.5L 581.4 106.2ZM 595.9 7.5L 602.3 107.7L 622.4 108.6L 616 8.3ZM 622.4 108.6L 637.6 11.4L 617.4 10.8L 602.3 107.7ZM 617.4 10.8L 626.5 102.3L 646.6 102.7L 637.6 11.4ZM 646.6 102.7L 660.2 8L 640.1 7.1L 626.5 102.3ZM 640.1 7.1L 644.9 98.3L 665 99.5L 660.2 8ZM 665 99.5L 680.6 10.3L 660.5 9.2L 644.9 98.3ZM 660.5 9.2L 663.3 51.6L 683.3 50.3L 680.6 10.3Z" fill-rule="nonzero"></path></g></g></g><g id="g-root-cp_1_icon_18_zrjx531gs4bnz-fill" data-item-order="-507737" transform="translate(110, 698)"></g><g id="g-root-tx_closeunn_dfgltz1gs5ssp-fill" data-item-order="0" transform="translate(350, 266)"><g id="tx_closeunn_dfgltz1gs5ssp-fill" stroke="none" fill="#f4f4f4"><g><text style="font: 15px &quot;Shantell Sans&quot;, cursive; white-space: pre;" font-size="15px" font-family="'Shantell Sans', cursive"><tspan x="12" y="28.4" dominant-baseline="ideographic">Close unnecessary ports to limit potential </tspan><tspan x="12" y="46.4" dominant-baseline="ideographic">entry points.</tspan></text></g></g></g><g id="g-root-ic_find_1lua45j1gs5sln-fill" data-item-order="0" transform="translate(230, 338)"></g><g id="g-root-tx_securese_zqxg1z1gs5szo-fill" data-item-order="0" transform="translate(326, 326)"><g id="tx_securese_zqxg1z1gs5szo-fill" stroke="none" fill="#f4f4f4"><g><text style="font: bold 20px &quot;Shantell Sans&quot;, cursive; white-space: pre;" font-weight="bold" font-size="20px" font-family="'Shantell Sans', cursive"><tspan x="12" y="35.6" dominant-baseline="ideographic">Secure Secrets</tspan></text></g></g></g><g id="g-root-tx_5_4mkjr1gs5r7u-fill" data-item-order="0" transform="translate(146, 344)"><g id="tx_5_4mkjr1gs5r7u-fill" stroke="none" fill="#f4f4f4"><g><text style="font: bold 30px &quot;Shantell Sans&quot;, cursive; white-space: pre;" font-weight="bold" font-size="30px" font-family="'Shantell Sans', cursive"><tspan x="12.63" y="47.6" dominant-baseline="ideographic">5</tspan></text></g></g></g><g id="g-root-tx_usedocke_qvwww71gs5qml-fill" data-item-order="0" transform="translate(326, 362)"><g id="tx_usedocke_qvwww71gs5qml-fill" stroke="none" fill="#f4f4f4"><g><text style="font: 15px &quot;Shantell Sans&quot;, cursive; white-space: pre;" font-size="15px" font-family="'Shantell Sans', cursive"><tspan x="12" y="28.4" dominant-baseline="ideographic">Use Docker Secrets to encrypt and protect </tspan><tspan x="12" y="46.4" dominant-baseline="ideographic">sensitive data.</tspan></text></g></g></g><g id="g-root-tx_minimize_mb3m2v1gs5s00-fill" data-item-order="0" transform="translate(350, 230)"><g id="tx_minimize_mb3m2v1gs5s00-fill" stroke="none" fill="#f4f4f4"><g><text style="font: bold 20px &quot;Shantell Sans&quot;, cursive; white-space: pre;" font-weight="bold" font-size="20px" font-family="'Shantell Sans', cursive"><tspan x="12" y="35.6" dominant-baseline="ideographic">Minimize Exposed Ports</tspan></text></g></g></g><g id="g-root-ic_lock_1hd7nuv1gs5r7r-fill" data-item-order="0" transform="translate(254, 242)"></g><g id="g-root-ic_lock_94mwef1gs5szr-fill" data-item-order="0" transform="translate(206, 434)"></g><g id="g-root-tx_mandator_v4v72f1gs75l4-fill" data-item-order="0" transform="translate(302, 422)"><g id="tx_mandator_v4v72f1gs75l4-fill" stroke="none" fill="#f4f4f4"><g><text style="font: bold 20px &quot;Shantell Sans&quot;, cursive; white-space: pre;" font-weight="bold" font-size="20px" font-family="'Shantell Sans', cursive"><tspan x="12" y="35.6" dominant-baseline="ideographic">Mandatory Access Controls</tspan></text></g></g></g><g id="g-root-tx_4_dkgeiv1gs5s7i-fill" data-item-order="0" transform="translate(116, 440)"><g id="tx_4_dkgeiv1gs5s7i-fill" stroke="none" fill="#f4f4f4"><g><text style="font: bold 30px &quot;Shantell Sans&quot;, cursive; white-space: pre;" font-weight="bold" font-size="30px" font-family="'Shantell Sans', cursive"><tspan x="17.5" y="47.6" dominant-baseline="ideographic">4</tspan></text></g></g></g><g id="g-root-tx_enforces_hteop31gs7761-fill" data-item-order="0" transform="translate(302, 458)"><g id="tx_enforces_hteop31gs7761-fill" stroke="none" fill="#f4f4f4"><g><text style="font: 15px &quot;Shantell Sans&quot;, cursive; white-space: pre;" font-size="15px" font-family="'Shantell Sans', cursive"><tspan x="12" y="28.4" dominant-baseline="ideographic">Enforce Seccomp and AppArmor for enhanced </tspan><tspan x="12" y="46.4" dominant-baseline="ideographic">security.</tspan></text></g></g></g><g id="g-root-tx_6_1lt15zb1gs5qfi-fill" data-item-order="0" transform="translate(164, 248)"><g id="tx_6_1lt15zb1gs5qfi-fill" stroke="none" fill="#f4f4f4"><g><text style="font: bold 30px &quot;Shantell Sans&quot;, cursive; white-space: pre;" font-weight="bold" font-size="30px" font-family="'Shantell Sans', cursive"><tspan x="17.5" y="47.6" dominant-baseline="ideographic">6</tspan></text></g></g></g><g id="g-root-tx_conducto_1uo1p531gs5ssl-fill" data-item-order="0" transform="translate(374, 170)"><g id="tx_conducto_1uo1p531gs5ssl-fill" stroke="none" fill="#f4f4f4"><g><text style="font: 15px &quot;Shantell Sans&quot;, cursive; white-space: pre;" font-size="15px" font-family="'Shantell Sans', cursive"><tspan x="12" y="28.4" dominant-baseline="ideographic">Conduct ongoing scans to identify and </tspan><tspan x="12" y="46.4" dominant-baseline="ideographic">address vulnerabilities.</tspan></text></g></g></g><g id="g-root-ic_lock_2r5af1gs76df-fill" data-item-order="0" transform="translate(182, 530)"></g><g id="g-root-tx_startwit_dfgltz1gs8kcl-fill" data-item-order="0" transform="translate(230, 752)"><g id="tx_startwit_dfgltz1gs8kcl-fill" stroke="none" fill="#f4f4f4"><g><text style="font: 15px &quot;Shantell Sans&quot;, cursive; white-space: pre;" font-size="15px" font-family="'Shantell Sans', cursive"><tspan x="12" y="31.4" dominant-baseline="ideographic">Start with a minimal base image to reduce vulnerabilities.</tspan></text></g></g></g><g id="g-root-tx_3_de7nnr1gs74si-fill" data-item-order="0" transform="translate(92, 536)"><g id="tx_3_de7nnr1gs74si-fill" stroke="none" fill="#f4f4f4"><g><text style="font: bold 30px &quot;Shantell Sans&quot;, cursive; white-space: pre;" font-weight="bold" font-size="30px" font-family="'Shantell Sans', cursive"><tspan x="17.5" y="47.6" dominant-baseline="ideographic">3</tspan></text></g></g></g><g id="g-root-tx_implemen_1ur62kn1gs77d1-fill" data-item-order="0" transform="translate(278, 554)"><g id="tx_implemen_1ur62kn1gs77d1-fill" stroke="none" fill="#f4f4f4"><g><text style="font: 15px &quot;Shantell Sans&quot;, cursive; white-space: pre;" font-size="15px" font-family="'Shantell Sans', cursive"><tspan x="12" y="28.4" dominant-baseline="ideographic">Implement user remapping to restrict container </tspan><tspan x="12" y="46.4" dominant-baseline="ideographic">privileges.</tspan></text></g></g></g><g id="g-root-tx_regulars_8ye5jb1gs5res-fill" data-item-order="0" transform="translate(374, 134)"><g id="tx_regulars_8ye5jb1gs5res-fill" stroke="none" fill="#f4f4f4"><g><text style="font: bold 20px &quot;Shantell Sans&quot;, cursive; white-space: pre;" font-weight="bold" font-size="20px" font-family="'Shantell Sans', cursive"><tspan x="12" y="35.6" dominant-baseline="ideographic">Regular Security Scans</tspan></text></g></g></g><g id="g-root-ic_page_i09wnb1gs4e17-fill" data-item-order="0" transform="translate(278, 146)"></g><g id="g-root-tx_2_1hgc1af1gs75s6-fill" data-item-order="0" transform="translate(68, 632)"><g id="tx_2_1hgc1af1gs75s6-fill" stroke="none" fill="#f4f4f4"><g><text style="font: bold 30px &quot;Shantell Sans&quot;, cursive; white-space: pre;" font-weight="bold" font-size="30px" font-family="'Shantell Sans', cursive"><tspan x="17.5" y="47.6" dominant-baseline="ideographic">2</tspan></text></g></g></g><g id="g-root-ic_dele_18kp11j1gs76kv-fill" data-item-order="0" transform="translate(158, 626)"></g><g id="g-root-tx_removeun_1qf3eyv1gs75e0-fill" data-item-order="0" transform="translate(254, 620)"><g id="tx_removeun_1qf3eyv1gs75e0-fill" stroke="none" fill="#f4f4f4"><g><text style="font: bold 20px &quot;Shantell Sans&quot;, cursive; white-space: pre;" font-weight="bold" font-size="20px" font-family="'Shantell Sans', cursive"><tspan x="12" y="35.6" dominant-baseline="ideographic">Remove Unnecessary Services</tspan></text></g></g></g><g id="g-root-tx_eliminat_1lz9wuf1gs7669-fill" data-item-order="0" transform="translate(254, 656)"><g id="tx_eliminat_1lz9wuf1gs7669-fill" stroke="none" fill="#f4f4f4"><g><text style="font: 15px &quot;Shantell Sans&quot;, cursive; white-space: pre;" font-size="15px" font-family="'Shantell Sans', cursive"><tspan x="12" y="31.4" dominant-baseline="ideographic">Eliminate services like SSH to decrease attack vectors.</tspan></text></g></g></g><g id="g-root-tx_7_qvwww71gs4d8i-fill" data-item-order="0" transform="translate(188, 152)"><g id="tx_7_qvwww71gs4d8i-fill" stroke="none" fill="#f4f4f4"><g><text style="font: bold 30px &quot;Shantell Sans&quot;, cursive; white-space: pre;" font-weight="bold" font-size="30px" font-family="'Shantell Sans', cursive"><tspan x="17.5" y="47.6" dominant-baseline="ideographic">7</tspan></text></g></g></g><g id="g-root-tx_achievin_vbqf0n1gs4cg9-fill" data-item-order="0" transform="translate(158, 38)"><g id="tx_achievin_vbqf0n1gs4cg9-fill" stroke="none" fill="#f4f4f4"><g><text style="font: bold 25px &quot;Shantell Sans&quot;, cursive; white-space: pre;" font-weight="bold" font-size="25px" font-family="'Shantell Sans', cursive"><tspan x="13.29" y="44.2" dominant-baseline="ideographic">Achieving Container Security</tspan></text></g></g></g><g id="g-root-tx_1_18nteh31gs77r6-fill" data-item-order="0" transform="translate(50, 728)"><g id="tx_1_18nteh31gs77r6-fill" stroke="none" fill="#f4f4f4"><g><text style="font: bold 30px &quot;Shantell Sans&quot;, cursive; white-space: pre;" font-weight="bold" font-size="30px" font-family="'Shantell Sans', cursive"><tspan x="15.18" y="47.6" dominant-baseline="ideographic">1</tspan></text></g></g></g><g id="g-root-ic_4_zit9xj1gs8jyj-fill" data-item-order="0" transform="translate(134, 722)"></g><g id="g-root-tx_secureba_qqan471gs8lxg-fill" data-item-order="0" transform="translate(230, 716)"><g id="tx_secureba_qqan471gs8lxg-fill" stroke="none" fill="#f4f4f4"><g><text style="font: bold 20px &quot;Shantell Sans&quot;, cursive; white-space: pre;" font-weight="bold" font-size="20px" font-family="'Shantell Sans', cursive"><tspan x="12" y="35.6" dominant-baseline="ideographic">Secure Base Image</tspan></text></g></g></g><g id="g-root-tx_leastpri_5vipz1gs76rw-fill" data-item-order="0" transform="translate(278, 518)"><g id="tx_leastpri_5vipz1gs76rw-fill" stroke="none" fill="#f4f4f4"><g><text style="font: bold 20px &quot;Shantell Sans&quot;, cursive; white-space: pre;" font-weight="bold" font-size="20px" font-family="'Shantell Sans', cursive"><tspan x="12" y="35.6" dominant-baseline="ideographic">Least Privilege</tspan></text></g></g></g><g id="g-root-cp_7_border-7_1ursjnr1gs4but-stroke" data-item-order="-508022" transform="translate(158, 122)"><g id="cp_7_border-7_1ursjnr1gs4but-stroke" fill="none" stroke-linecap="round" stroke-linejoin="round" stroke-miterlimit="4" stroke="#f4f4f4" stroke-width="4"><g><path d="M 10 57C 10.5 31 31.1 11.9 57 10C 68.6 9.1 80.3 9.7 92 10C 105 10.4 118.1 11.1 131.1 10C 142.6 9 154.1 9.4 165.6 10C 179.2 10.7 192.9 9.2 206.5 10M 10 59C 9.9 58.3 9.9 57.7 10 57M 10 59C 10.2 71.2 15.5 81.7 22.3 90.8C 30 100.9 43.3 105.8 57 106C 66.8 106.1 76.8 104.6 86.5 106M 207 106C 199 106.6 190.8 107.7 183 106M 206.6 10C 223.1 9.2 239.5 9.7 255.9 10C 271.7 10.3 287.7 8.1 303.4 10C 318.9 11.9 334.8 8.7 350.4 10C 365.2 11.3 380.2 8.2 395 10C 410 11.8 425.3 11.9 440.2 10C 457 7.9 474.1 10.6 491 10C 506.6 9.4 522.3 9.6 538 10C 538 42 537.4 74 538 106C 526.6 107.7 515 106.2 503.5 106C 492.1 105.9 480.8 107.1 469.5 106C 457 104.8 444.3 105.6 431.7 106C 419.5 106.4 407.3 105.7 395.1 106C 381.4 106.3 367.7 105.1 354 106C 341.5 106.8 328.8 106.6 316.3 106C 303.1 105.4 289.8 106.7 276.6 106C 265.4 105.4 254.3 105.1 243.2 106C 231 106.9 218.7 104.2 206.6 106"></path><path d="M 10 57C 10 31.0426 31.0426 10 57 10L 206.5 10M 10 58.999969L 10 56.980469M 10 59C 10 84.9576 31 106.0004 57 106.0004L 86.5 106.0004M 207 106.0004L 183 106.0004M 206.642944 10L 538.000244 10L 538.000244 106L 206.643144 106"></path></g></g></g><g id="g-root-cp_7_icon_1lw5jev1gs4cnj-stroke" data-item-order="-507999" transform="translate(234.65234375, 122)"><g id="cp_7_icon_1lw5jev1gs4cnj-stroke" fill="none" stroke-linecap="round" stroke-linejoin="round" stroke-miterlimit="4" stroke="#f4f4f4" stroke-width="2"><g><path d="M 29.347656 23.4C 28.747656 18.5 31.247656 13.9 33.947656 10M 129.947656 10C 128.047656 14.3 126.947656 18.7 125.347656 23.4M 125.347656 23C 123.847656 42.9 124.247656 63 125.347656 83M 29.347656 83C 28.247656 63 30.247656 43 29.347656 23M 125.347656 82.9C 124.647656 90.3 120.447656 96.7 113.347656 100.5C 110.547656 102 107.847656 103.7 105.947656 106M 29.347656 82.9C 30.647656 90.2 24.447656 96.6 17.347656 100.5C 14.547656 102.1 11.047656 103.2 10.047656 106"></path><path d="M 29.347656 23.4164C 29.347656 18.4588 31.036556 13.7576 33.989656 10M 129.989656 10C 127.036556 13.7576 125.347656 18.4587 125.347656 23.4164M 125.347656 23L 125.347656 83M 29.347656 83L 29.347656 23M 125.3474 82.871094C 125.3474 90.341794 120.7018 97.170994 113.3474 100.511994C 110.4109 101.845994 107.9063 103.736094 105.9568 106.001194M 29.3474 82.871094C 29.3474 90.341794 24.7018 97.170994 17.3474 100.511994C 14.4326 101.836194 11.9432 103.708294 10 105.951194"></path></g></g></g><g id="g-root-cp_6_border-6_1hgc1af1gs4dft-stroke" data-item-order="-507978" transform="translate(134, 218)"><g id="cp_6_border-6_1hgc1af1gs4dft-stroke" fill="none" stroke-linecap="round" stroke-linejoin="round" stroke-miterlimit="4" stroke="#f4f4f4" stroke-width="4"><g><path d="M 10 57C 10.6 31 31 10.6 57 10C 74.8 9.6 92.7 11.5 110.5 10M 10 59C 10 58.3 9.7 57.6 10 57M 10 59C 8.3 84.9 31 104.5 57 106C 66.8 106.6 76.8 107.6 86.5 106M 207 106C 199.1 105 190.8 107.8 183 106M 206.6 10C 238.7 10.1 270.7 8.6 302.7 10C 328.7 11.1 354.7 11.2 380.7 10C 413.3 8.5 446 11.5 478.6 10C 506.4 8.7 534.2 9 562 10C 563.2 42 563.2 74 562 106C 538.9 105.7 515.7 106.6 492.6 106C 466.7 105.4 440.8 104.5 415.1 106C 389.9 107.5 364.7 105.3 339.5 106C 319.1 106.6 298.7 105.9 278.3 106C 254.4 106.1 230.5 106.7 206.6 106"></path><path d="M 10 57C 10 31.0426 31.0426 10 57 10L 110.5 10M 10 58.999969L 10 56.980469M 10 59C 10 84.9576 31 106.0004 57 106.0004L 86.5 106.0004M 207 106.0004L 183 106.0004M 206.64296 10L 562.00026 10L 562.00026 106L 206.64316 106"></path></g></g></g><g id="g-root-cp_6_icon_3_1d0ij5z1gs4e83-stroke" data-item-order="-507955" transform="translate(210.65234375, 218)"><g id="cp_6_icon_3_1d0ij5z1gs4e83-stroke" fill="none" stroke-linecap="round" stroke-linejoin="round" stroke-miterlimit="4" stroke="#f4f4f4" stroke-width="2"><g><path d="M 29.347656 23.4C 28.347656 18.6 30.347656 13.1 33.947656 10M 129.947656 10C 126.247656 12.9 125.347656 18.5 125.347656 23.4M 125.347656 23C 126.447656 43 123.647656 63.1 125.347656 83M 29.347656 83C 27.847656 63.1 28.647656 43 29.347656 23M 125.347656 82.9C 124.747656 90.3 120.847656 97.6 113.347656 100.5C 110.347656 101.7 107.847656 103.7 105.947656 106M 29.347656 82.9C 30.447656 90.3 24.947656 97.8 17.347656 100.5C 14.347656 101.6 11.447656 103.4 10.047656 106"></path><path d="M 29.347656 23.4164C 29.347656 18.4588 31.036556 13.7576 33.989656 10M 129.989656 10C 127.036556 13.7576 125.347656 18.4587 125.347656 23.4164M 125.347656 23L 125.347656 83M 29.347656 83L 29.347656 23M 125.3474 82.871094C 125.3474 90.341794 120.7018 97.170994 113.3474 100.511994C 110.4109 101.845994 107.9063 103.736094 105.9568 106.001194M 29.3474 82.871094C 29.3474 90.341794 24.7018 97.170994 17.3474 100.511994C 14.4326 101.836194 11.9432 103.708294 10 105.951194"></path></g></g></g><g id="g-root-cp_5_border-5_145i0071gs4bv1-stroke" data-item-order="-507934" transform="translate(110, 314)"><g id="cp_5_border-5_145i0071gs4bv1-stroke" fill="none" stroke-linecap="round" stroke-linejoin="round" stroke-miterlimit="4" stroke="#f4f4f4" stroke-width="4"><g><path d="M 10 57C 10.5 31 31.1 11.5 57 10C 74.8 9 92.7 11.4 110.5 10M 10 59C 9.7 58.4 9.9 57.7 10 57M 10 59C 11.9 84.9 31 104.9 57 106C 66.8 106.4 76.7 105.5 86.5 106M 207 106C 199 106.3 190.9 107.3 183 106M 206.6 10C 223.8 10 241 10.6 258.2 10C 275.3 9.4 292.4 11 309.4 10C 323.8 9.2 338.3 11.4 352.6 10C 369.5 8.4 386.7 12 403.6 10C 419.6 8.1 435.8 11.9 451.7 10C 466.7 8.2 481.9 8.9 496.9 10C 510.4 10.9 523.8 10.1 537.3 10C 553.5 9.8 569.8 9.6 586 10C 585.7 42 585.2 74 586 106C 564.2 105.4 542.3 106.9 520.5 106C 498.2 105 475.8 107.2 453.5 106C 431 104.8 408.4 104.7 385.8 106C 366.3 107.2 346.7 106.2 327.2 106C 308.7 105.8 290.3 104.5 271.9 106C 250.2 107.8 228.4 105.1 206.6 106"></path><path d="M 10 57C 10 31.0426 31.0426 10 57 10L 110.5 10M 10 58.999969L 10 56.980469M 10 59C 10 84.9576 31 106.0004 57 106.0004L 86.5 106.0004M 207 106.0004L 183 106.0004M 206.64296 10L 586.00026 10L 586.00026 106L 206.64316 106"></path></g></g></g><g id="g-root-cp_5_icon_6_zpohvr1gs4cnb-stroke" data-item-order="-507911" transform="translate(186.65234375, 314)"><g id="cp_5_icon_6_zpohvr1gs4cnb-stroke" fill="none" stroke-linecap="round" stroke-linejoin="round" stroke-miterlimit="4" stroke="#f4f4f4" stroke-width="2"><g><path d="M 29.347656 23.4C 29.647656 18.5 32.447656 14.5 33.947656 10M 129.947656 10C 127.847656 14.3 125.647656 18.5 125.347656 23.4M 125.347656 23C 124.747656 43 124.547656 63 125.347656 83M 29.347656 83C 29.147656 63 29.847656 43 29.347656 23M 125.347656 82.9C 123.447656 90.1 119.947656 95.9 113.347656 100.5C 110.747656 102.4 107.247656 103.3 105.947656 106M 29.347656 82.9C 29.847656 90.3 24.847656 97.5 17.347656 100.5C 14.347656 101.7 11.547656 103.4 10.047656 106"></path><path d="M 29.347656 23.4164C 29.347656 18.4588 31.036556 13.7576 33.989656 10M 129.989656 10C 127.036556 13.7576 125.347656 18.4587 125.347656 23.4164M 125.347656 23L 125.347656 83M 29.347656 83L 29.347656 23M 125.3474 82.871094C 125.3474 90.341794 120.7018 97.170994 113.3474 100.511994C 110.4109 101.845994 107.9063 103.736094 105.9568 106.001194M 29.3474 82.871094C 29.3474 90.341794 24.7018 97.170994 17.3474 100.511994C 14.4326 101.836194 11.9432 103.708294 10 105.951194"></path></g></g></g><g id="g-root-cp_4_border-4_v9uzrb1gs4dfl-stroke" data-item-order="-507890" transform="translate(86, 410)"><g id="cp_4_border-4_v9uzrb1gs4dfl-stroke" fill="none" stroke-linecap="round" stroke-linejoin="round" stroke-miterlimit="4" stroke="#f4f4f4" stroke-width="4"><g><path d="M 10 57C 9.5 43 15.3 29.4 25.8 21.8C 34.9 15.4 45.1 11 57 10C 74.8 8.6 92.7 10.8 110.5 10M 10 59C 10 58.3 10.1 57.7 10 57M 10 59C 9.1 84.9 31 107.1 57 106C 66.8 105.6 76.7 104.9 86.5 106M 207 106C 199.1 104.7 190.9 105 183 106M 206.6 10C 222.9 10.3 239.3 10 255.6 10C 271.4 10 287.3 8.2 303 10C 318.5 11.7 334.1 9.1 349.7 10C 366.2 10.9 382.9 9.6 399.5 10C 416.2 10.4 432.9 10.5 449.7 10C 466.5 9.5 483.3 9.2 500.1 10C 518.5 10.9 537 11.9 555.4 10C 573.5 8.2 591.9 8.3 610 10C 609.8 42 609 74 610 106C 581.7 104.4 553.2 107.3 524.8 106C 496.9 104.7 468.9 105.3 441 106C 416.2 106.7 391.4 107.8 366.7 106C 338.8 103.9 310.6 104.1 282.7 106C 257.4 107.8 232 105.3 206.6 106"></path><path d="M 10 57C 10 31.0426 31.0426 10 57 10L 110.5 10M 10 58.999969L 10 56.980469M 10 59C 10 84.9576 31 106.0004 57 106.0004L 86.5 106.0004M 207 106.0004L 183 106.0004M 206.642975 10L 610.000275 10L 610.000275 106L 206.643175 106"></path></g></g></g><g id="g-root-cp_4_icon_9_hz0yh31gs4bur-stroke" data-item-order="-507867" transform="translate(162.65234375, 410)"><g id="cp_4_icon_9_hz0yh31gs4bur-stroke" fill="none" stroke-linecap="round" stroke-linejoin="round" stroke-miterlimit="4" stroke="#f4f4f4" stroke-width="2"><g><path d="M 29.347656 23.4C 28.647656 18.5 30.547656 13.3 33.947656 10M 129.947656 10C 127.447656 14 126.047656 18.5 125.347656 23.4M 125.347656 23C 124.647656 43 125.247656 63 125.347656 83M 29.347656 83C 27.847656 63.1 27.947656 43 29.347656 23M 125.347656 82.9C 127.047656 90.1 120.147656 96.2 113.347656 100.5C 110.647656 102.2 107.747656 103.6 105.947656 106M 29.347656 82.9C 28.947656 90.3 24.947656 97.7 17.347656 100.5C 14.347656 101.6 11.447656 103.3 10.047656 106"></path><path d="M 29.347656 23.4164C 29.347656 18.4588 31.036556 13.7576 33.989656 10M 129.989656 10C 127.036556 13.7576 125.347656 18.4587 125.347656 23.4164M 125.347656 23L 125.347656 83M 29.347656 83L 29.347656 23M 125.3474 82.871094C 125.3474 90.341794 120.7018 97.170994 113.3474 100.511994C 110.4109 101.845994 107.9063 103.736094 105.9568 106.001194M 29.3474 82.871094C 29.3474 90.341794 24.7018 97.170994 17.3474 100.511994C 14.4326 101.836194 11.9432 103.708294 10 105.951194"></path></g></g></g><g id="g-root-cp_3_border-3_4nkg3r1gs4dfp-stroke" data-item-order="-507846" transform="translate(62, 506)"><g id="cp_3_border-3_4nkg3r1gs4dfp-stroke" fill="none" stroke-linecap="round" stroke-linejoin="round" stroke-miterlimit="4" stroke="#f4f4f4" stroke-width="4"><g><path d="M 10 57C 10.2 31 31 9.5 57 10C 74.8 10.3 92.7 10.6 110.5 10M 10 59C 9.8 58.4 9.9 57.7 10 57M 10 59C 9.4 84.9 31 105.5 57 106C 66.8 106.2 76.7 106.9 86.5 106M 207 106C 199.1 107.2 190.8 107.9 183 106M 206.6 10C 225.9 11.4 245.4 10.5 264.7 10C 283.7 9.5 302.8 11.8 321.7 10C 338.8 8.4 356.1 8.8 373.2 10C 390.7 11.2 408.4 8.9 426 10C 443.7 11.1 461.5 11.9 479.2 10C 495.8 8.2 512.6 8.1 529.2 10C 547.1 12.1 565.2 11.8 583.1 10C 600 8.3 617.2 8.1 634 10C 633.7 25.3 632.9 40.6 634 55.8C 635.2 72.5 635.6 89.3 634 106C 608 104.4 582 106.2 556 106C 531 105.8 505.9 106.4 480.9 106C 459.4 105.6 438 105.2 416.5 106C 392.1 106.9 367.6 106.7 343.1 106C 321 105.3 298.7 104 276.7 106C 253.4 108.1 229.9 104.4 206.6 106"></path><path d="M 10 57C 10 31.0426 31.0426 10 57 10L 110.5 10M 10 58.999969L 10 56.980469M 10 59C 10 84.9576 31 106.0004 57 106.0004L 86.5 106.0004M 207 106.0004L 183 106.0004M 206.64299 10L 634.00029 10L 634.00029 106L 206.64319 106"></path></g></g></g><g id="g-root-cp_3_icon_12_1ut1htz1gs4e1b-stroke" data-item-order="-507823" transform="translate(138.65234375, 506)"><g id="cp_3_icon_12_1ut1htz1gs4e1b-stroke" fill="none" stroke-linecap="round" stroke-linejoin="round" stroke-miterlimit="4" stroke="#f4f4f4" stroke-width="2"><g><path d="M 29.347656 23.4C 30.347656 18.6 31.047656 13.8 33.947656 10M 129.947656 10C 128.147656 14.4 126.047656 18.5 125.347656 23.4M 125.347656 23C 126.247656 43 125.147656 63 125.347656 83M 29.347656 83C 30.747656 63 30.847656 42.9 29.347656 23M 125.347656 82.9C 125.547656 90.3 119.947656 95.8 113.347656 100.5C 110.747656 102.4 107.347656 103.3 105.947656 106M 29.347656 82.9C 28.147656 90.3 23.647656 95.5 17.347656 100.5C 14.847656 102.5 11.147656 103.2 10.047656 106"></path><path d="M 29.347656 23.4164C 29.347656 18.4588 31.036556 13.7576 33.989656 10M 129.989656 10C 127.036556 13.7576 125.347656 18.4587 125.347656 23.4164M 125.347656 23L 125.347656 83M 29.347656 83L 29.347656 23M 125.3474 82.871094C 125.3474 90.341794 120.7018 97.170994 113.3474 100.511994C 110.4109 101.845994 107.9063 103.736094 105.9568 106.001194M 29.3474 82.871094C 29.3474 90.341794 24.7018 97.170994 17.3474 100.511994C 14.4326 101.836194 11.9432 103.708294 10 105.951194"></path></g></g></g><g id="g-root-cp_2_border-2_1qdugsn1gs4bnt-stroke" data-item-order="-507802" transform="translate(38, 602)"><g id="cp_2_border-2_1qdugsn1gs4bnt-stroke" fill="none" stroke-linecap="round" stroke-linejoin="round" stroke-miterlimit="4" stroke="#f4f4f4" stroke-width="4"><g><path d="M 10 57C 11.2 45.3 14.5 34.7 21.4 26.3C 29.8 16.1 42.8 11.4 57 10C 74.7 8.2 92.7 8.9 110.5 10M 10 59C 10 58.3 9.8 57.6 10 57M 10 59C 8.9 70.6 14.7 81.1 21.3 89.6C 29.4 100.1 42.8 104.7 57 106C 66.8 106.9 76.7 105.4 86.5 106M 207 106C 199 106.6 191 105.9 183 106M 206.6 10C 230.2 10.9 253.8 8.8 277.4 10C 297.5 11 317.7 9.8 337.9 10C 359.3 10.2 380.7 10.9 402 10C 421.8 9.2 441.5 10.8 461.2 10C 484.2 9.1 507.1 9.9 530 10C 553.3 10.1 576.6 10.5 599.9 10C 619.3 9.6 638.6 9.5 658 10C 657.1 42 659.2 74 658 106C 631.3 107.1 604.5 104.7 577.8 106C 554.8 107.1 531.6 104.3 508.6 106C 482.2 107.9 455.7 106.5 429.3 106C 404.5 105.5 379.7 105.2 354.9 106C 330.3 106.8 305.6 107.4 281 106C 256.3 104.6 231.4 104.7 206.6 106"></path><path d="M 10 57C 10 31.0426 31.0426 10 57 10L 110.5 10M 10 58.999969L 10 56.980469M 10 59C 10 84.9576 31 106.0004 57 106.0004L 86.5 106.0004M 207 106.0004L 183 106.0004M 206.64299 10L 658.00019 10L 658.00019 106L 206.64329 106"></path></g></g></g><g id="g-root-cp_2_icon_15_1ly0yo71gs4cg3-stroke" data-item-order="-507779" transform="translate(114.65234375, 602)"><g id="cp_2_icon_15_1ly0yo71gs4cg3-stroke" fill="none" stroke-linecap="round" stroke-linejoin="round" stroke-miterlimit="4" stroke="#f4f4f4" stroke-width="2"><g><path d="M 29.347656 23.4C 30.147656 18.5 30.847656 13.6 33.947656 10M 129.947656 10C 125.847656 12.4 125.347656 18.5 125.347656 23.4M 125.347656 23C 125.747656 43 127.047656 63.1 125.347656 83M 29.347656 83C 28.847656 63 28.847656 43 29.347656 23M 125.347656 82.9C 125.347656 90.3 120.447656 96.7 113.347656 100.5C 110.547656 102 108.547656 104.5 105.947656 106M 29.347656 82.9C 27.947656 90.2 24.547656 96.9 17.347656 100.5C 14.447656 101.9 11.847656 103.6 10.047656 106"></path><path d="M 29.347656 23.4164C 29.347656 18.4588 31.036556 13.7576 33.989656 10M 129.989656 10C 127.036556 13.7576 125.347656 18.4587 125.347656 23.4164M 125.347656 23L 125.347656 83M 29.347656 83L 29.347656 23M 125.3474 82.871094C 125.3474 90.341794 120.7018 97.170994 113.3474 100.511994C 110.4109 101.845994 107.9063 103.736094 105.9568 106.001194M 29.3474 82.871094C 29.3474 90.341794 24.7018 97.170994 17.3474 100.511994C 14.4326 101.836194 11.9432 103.708294 10 105.951194"></path></g></g></g><g id="g-root-cp_1_border-1_1d2dyfb1gs4d8t-stroke" data-item-order="-507758" transform="translate(14, 698)"><g id="cp_1_border-1_1d2dyfb1gs4d8t-stroke" fill="none" stroke-linecap="round" stroke-linejoin="round" stroke-miterlimit="4" stroke="#f4f4f4" stroke-width="4"><g><path d="M 10 57C 8.9 43.6 15.2 31 24.6 22.9C 33.5 15.4 44.5 10 57 10C 74.8 10 92.7 10.6 110.5 10M 682 57C 683.8 41.4 680.8 25.6 682 10C 669.4 10.8 656.7 8.8 644.2 10C 632.9 11.1 621.6 10.1 610.2 10C 598.4 9.9 586.5 10 574.7 10C 562 10 549.4 10 536.7 10C 523.7 10 510.7 9.3 497.7 10C 485.2 10.7 472.5 10.8 460 10C 446.9 9.2 433.7 9.7 420.6 10C 408.4 10.3 396.1 11.6 384.1 10C 373.1 8.6 361.9 9.6 350.8 10C 339.5 10.4 328.2 8.9 317 10C 305.3 11.2 293.5 9.5 281.7 10C 270.2 10.5 258.6 9.3 247.1 10C 233.6 10.9 220.1 10.1 206.6 10M 682 57C 681.9 57.7 681.9 58.3 682 59M 10 59C 10 58.3 10.2 57.6 10 57M 10 59C 10.1 85 32.7 106 60.6 106C 71.7 106 82.9 104.1 93.8 106C 105.4 108 117.4 104.5 129.1 106C 140.5 107.5 152.3 104.1 163.7 106C 174.9 107.9 186.3 106.5 197.6 106C 210.1 105.5 222.7 107.3 235.2 106C 247.6 104.7 260.1 105.8 272.5 106C 284.3 106.2 296.2 107.2 307.9 106C 320 104.7 332.4 107.8 344.5 106C 357.2 104 370.4 107.7 383.2 106C 394.6 104.5 406.2 104.7 417.6 106C 429.2 107.3 440.9 107.3 452.5 106C 465.1 104.6 477.9 105.4 490.6 106C 501.6 106.5 512.7 106.4 523.8 106C 534.8 105.6 545.8 106.2 556.8 106C 568.6 105.8 580.5 107.8 592.1 106C 605 104 618.3 107.3 631.4 106C 659.2 103.2 681.5 84.9 682 59"></path><path d="M 10 57C 10 31.0426 31.0426 10 57 10L 110.5 10M 682.00029 57L 682.00029 10L 206.64299 10M 682.0001 56.980469L 682.0001 58.999969M 10 58.999969L 10 56.980469M 10 59C 10 84.9576 32.6614 106.0004 60.6158 106.0004L 631.3843 106.0004C 659.3386 106.0004 682.0001 84.9576 682.0001 59"></path></g></g></g><g id="g-root-cp_1_icon_18_zrjx531gs4bnz-stroke" data-item-order="-507737" transform="translate(110, 698)"><g id="cp_1_icon_18_zrjx531gs4bnz-stroke" fill="none" stroke-linecap="round" stroke-linejoin="round" stroke-miterlimit="4" stroke="#f4f4f4" stroke-width="2"><g><path d="M 10 23.4C 10.2 18.5 12 14 14.6 10M 110.6 10C 108.3 14.2 105.2 18.5 106 23.4M 106 23C 105 35.3 105.8 47.7 106 60M 10 60C 11.3 47.7 9.2 35.3 10 23M 10 59.8C 11.2 85.3 30.7 105.8 56.2 106C 57.4 106 58.6 105.7 59.8 106C 84.3 113.2 105 85.3 106 59.8"></path><path d="M 10 23.4164C 10 18.4588 11.6889 13.7576 14.642 10M 110.642 10C 107.6889 13.7576 106 18.4587 106 23.4164M 106 23L 106 60M 10 60L 10 23M 10 59.75C 10 85.2927 30.7065 105.9992 56.2492 105.9992L 59.7508 105.9992C 85.2935 105.9992 106 85.2927 106 59.75"></path></g></g></g><g id="g-root-tx_closeunn_dfgltz1gs5ssp-stroke" data-item-order="0" transform="translate(350, 266)"></g><g id="g-root-ic_find_1lua45j1gs5sln-stroke" data-item-order="0" transform="translate(230, 338)"><g id="ic_find_1lua45j1gs5sln-stroke" fill="none" stroke-linecap="round" stroke-linejoin="round" stroke-miterlimit="4" stroke="#f4f4f4" stroke-width="2"><g><path d="M 51 19C 51.200001 14.6 47.200001 12 43 11C 35.200001 9 26.799999 9.2 19 11C 14.6 12 11 14.6 11 19C 11 20.4 10.8 21.6 11 23C 24 20.4 37.799999 24.4 51 23C 50.599998 21.799999 50.799999 20.4 51 19M 27 11C 21.200001 9.4 21 19 21 19C 20.6 20.200001 20.6 21.799999 21 23M 35 11C 41 11 41 19 41 19C 41.200001 20.4 41.200001 21.6 41 23M 51 30C 51.599998 27.799999 51.799999 25.200001 51 23C 37.799999 25.200001 24.200001 24.200001 11 23C 10.2 29 11.4 35 11 41C 10.8 43.200001 13 44.200001 15 45C 19.4 46.599998 24.4 45.400002 29 45M 11 27C 16.200001 27.799999 21.799999 28.200001 27 27C 27 27.6 26.799999 28.4 27 29C 27.6 31.200001 28.799999 32.799999 31 33C 33.200001 33.200001 34.599998 31.200001 35 29C 35.200001 28.4 35.200001 27.6 35 27C 40 25 45.599998 26.799999 51 27M 31 27C 31.200001 27.6 31.200001 28.4 31 29M 21 27C 18.799999 32.599998 21.6 39 21 45M 33 45C 32.400002 51.599998 38.400002 56.200001 45 57C 51.599998 57.799999 55.799999 51.599998 57 45C 58.200001 38.400002 51.599998 31.6 45 33C 38.599998 34.400002 33.400002 38.400002 33 45M 50.400002 41.599998C 48.799999 44.400002 47.200001 47.400002 44.599998 49.200001C 44.200001 49.599998 43.799999 50 43.400002 49.799999C 43 49.799999 42.599998 49.799999 42.200001 49.400002C 41.200001 48.400002 40.400002 47.200001 39.200001 46.400002"></path><path d="M 51 19C 51 14.581722 47.418278 11 43 11L 19 11C 14.581722 11 11 14.581722 11 19L 11 23L 51 23L 51 19ZM 27 11C 21 11 21 19 21 19L 21 23M 35 11C 41 11 41 19 41 19L 41 23M 51 30L 51 23L 11 23L 11 41C 11 43.209141 12.790861 45 15 45L 29 45M 11 27L 27 27L 27 29C 27 31.209139 28.790861 33 31 33L 31 33C 33.209137 33 35 31.209139 35 29L 35 27L 51 27M 31 27L 31 29M 21 27L 21 45M 33 45C 33 51.627419 38.372581 57 45 57C 51.627419 57 57 51.627419 57 45C 57 38.372581 51.627419 33 45 33C 38.372581 33 33 38.372581 33 45ZM 50.348 41.512001L 44.537998 49.257999C 44.276516 49.605347 43.877514 49.822548 43.443855 49.853607C 43.010197 49.884663 42.584312 49.72654 42.276001 49.419998L 39.276001 46.419998"></path></g></g></g><g id="g-root-tx_securese_zqxg1z1gs5szo-stroke" data-item-order="0" transform="translate(326, 326)"></g><g id="g-root-tx_5_4mkjr1gs5r7u-stroke" data-item-order="0" transform="translate(146, 344)"></g><g id="g-root-tx_usedocke_qvwww71gs5qml-stroke" data-item-order="0" transform="translate(326, 362)"></g><g id="g-root-tx_minimize_mb3m2v1gs5s00-stroke" data-item-order="0" transform="translate(350, 230)"></g><g id="g-root-ic_lock_1hd7nuv1gs5r7r-stroke" data-item-order="0" transform="translate(254, 242)"><g id="ic_lock_1hd7nuv1gs5r7r-stroke" fill="none" stroke-linecap="round" stroke-linejoin="round" stroke-miterlimit="4" stroke="#f4f4f4" stroke-width="2"><g><path d="M 41 41C 45.599998 41.799999 50.400002 42 55 41C 55 41 56.400002 41.200001 57 43C 58.200001 46.799999 56.799999 51 57 55C 57 55 57 56.400002 55 57C 50.599998 58.200001 45.599998 56 41 57C 41 57 39 57 39 55C 38.799999 51 40.400002 46.799999 39 43C 39 43 39 40.400002 41 41M 45.599998 49.200001C 46 50.400002 46.599998 52 48 51.599998C 49.400002 51.400002 50.200001 50.400002 50.599998 49.200001C 50.799999 47.799999 49.400002 46.400002 48 46.599998C 46.599998 47 45.799999 47.799999 45.599998 49.200001M 53 38C 52.599998 35.200001 50.799999 33 48 33C 45.200001 33 43.599998 35.400002 43 38C 42.799999 39 42.599998 40 43 41C 46.400002 41 49.799999 41.799999 53 41C 53.400002 40 52.799999 39 53 38M 33 41C 26.6 39.400002 19.6 42.200001 13 41C 12 40.799999 10.8 40 11 39C 12.6 32.799999 9.4 26 11 19.799999C 11.2 19.4 11.4 18.799999 11.6 18.4C 13.2 15.6 16 13.8 18.4 11.6C 18.799999 11.2 19.4 11 19.799999 11C 23.200001 11.2 27 12.2 30.200001 11C 30.6 10.8 31.200001 11.4 31.6 11.6C 34.400002 13.2 36.200001 16 38.400002 18.4C 38.799999 18.799999 38.799999 19.4 39 19.799999C 40 22 38.200001 24.799999 39 27M 38.799999 19C 29.6 19.4 19.799999 15.6 11.2 19M 25 11C 25.200001 13.6 25.799999 16.4 25 19"></path><path d="M 41 41.001999L 55 41.001999C 55 41.001999 57 41.001999 57 43.001999L 57 55C 57 55 57 57 55 57L 41 57C 41 57 39 57 39 55L 39 43.001999C 39 43.001999 39 41.001999 41 41.001999M 45.5 49.125999C 45.5 50.506714 46.619289 51.625999 48 51.625999C 49.380711 51.625999 50.5 50.506714 50.5 49.125999C 50.5 47.745289 49.380711 46.625999 48 46.625999C 46.619289 46.625999 45.5 47.745289 45.5 49.125999M 53 38C 53 35.238579 50.761425 33 48 33C 45.238575 33 43 35.238579 43 38L 43 41L 53 41ZM 33 41L 13 41C 11.895431 41 11 40.104568 11 39L 11 19.827999C 11.000113 19.297611 11.210901 18.788986 11.586 18.414L 18.414 11.586C 18.788986 11.210901 19.297611 11.000113 19.827999 11L 30.172001 11C 30.702389 11.000113 31.211014 11.210901 31.586 11.586L 38.414001 18.414C 38.789101 18.788986 38.999886 19.297611 39 19.827999L 39 27M 38.82 19L 11.18 19M 25 11L 25 19"></path></g></g></g><g id="g-root-ic_lock_94mwef1gs5szr-stroke" data-item-order="0" transform="translate(206, 434)"><g id="ic_lock_94mwef1gs5szr-stroke" fill="none" stroke-linecap="round" stroke-linejoin="round" stroke-miterlimit="4" stroke="#f4f4f4" stroke-width="2"><g><path d="M 39 41C 45 41 51 41.400002 57 41C 56.400002 46.200001 58.599998 52 57 57C 51 57.200001 45 57.400002 39 57C 38.799999 51.599998 39.799999 46.200001 39 41M 45.599998 49.200001C 45.599998 50.599998 46.599998 52 48 51.599998C 49.400002 51.200001 50.200001 50.400002 50.599998 49.200001C 50.799999 47.799999 49.400002 46.200001 48 46.599998C 46.599998 47 45 47.799999 45.599998 49.200001M 53 38C 52.799999 35.200001 50.799999 33.400002 48 33C 45.200001 32.599998 43.200001 35.200001 43 38C 42.799999 39 43.400002 40 43 41C 46.200001 41.599998 49.799999 40 53 41C 53 40 53.400002 39 53 38M 25 57C 20.4 57 15.4 55.200001 11 57C 11.6 47.599998 9.8 38.200001 11 29C 11.2 28 12 27.4 13 27C 16.200001 26 19.799999 26 23 27C 24 27.4 25 27.799999 25 29C 25.6 38.400002 24.799999 47.599998 25 57M 23 27C 22.799999 24.6 23.799999 22 23 19.6C 22.799999 19.200001 23.4 19 23.6 18.799999C 28 14.8 34.400002 14.4 39.599998 11.6C 39.799999 11.4 40.400002 11.4 40.599998 11.8C 40.799999 12 40.799999 12.2 41 12.6C 43.200001 18.6 41.400002 25.6 41 32M 21 57C 20.799999 55.400002 21 53.599998 21 52C 21 51.400002 20.6 51.200001 20 51C 18.799999 50.599998 17.200001 51.400002 16 51C 15.4 50.799999 15 51.400002 15 52C 15.2 53.599998 14.6 55.400002 15 57M 11 33C 13.6 33.200001 16.4 32.599998 19 33M 35 21C 37 20.6 39 21 41 21M 31 25C 34.200001 25.6 37.799999 26 41 25M 11 37C 12.2 37.400002 13.8 36.799999 15 37M 27 17.200001C 27.6 15.2 27.200001 13 27 11M 25 57C 28.200001 56 31.6 57.400002 35 57"></path><path d="M 39 41.001999L 57 41.001999L 57 57L 39 57ZM 45.5 49.125999C 45.5 50.506714 46.619289 51.625999 48 51.625999C 49.380711 51.625999 50.5 50.506714 50.5 49.125999C 50.5 47.745289 49.380711 46.625999 48 46.625999C 46.619289 46.625999 45.5 47.745289 45.5 49.125999ZM 53 38C 53 35.238579 50.761425 33 48 33C 45.238575 33 43 35.238579 43 38L 43 41L 53 41ZM 25 57L 11 57L 11 29C 11 27.89543 11.895431 27 13 27L 23 27C 24.104568 27 25 27.89543 25 29ZM 23 27L 23 19.65C 23.000999 19.253292 23.236408 18.894684 23.6 18.736L 39.599998 11.624C 39.908749 11.48925 40.264595 11.519007 40.546673 11.703165C 40.828751 11.887322 40.999153 12.201128 41 12.538L 41 32M 21 57L 21 52C 21 51.447716 20.552284 51 20 51L 16 51C 15.447716 51 15 51.447716 15 52L 15 57M 11 33L 19 33M 35 21L 41 21M 31 25L 41 25M 11 37L 15 37M 27 17.222L 27 11M 25 57L 35 57"></path></g></g></g><g id="g-root-tx_mandator_v4v72f1gs75l4-stroke" data-item-order="0" transform="translate(302, 422)"></g><g id="g-root-tx_4_dkgeiv1gs5s7i-stroke" data-item-order="0" transform="translate(116, 440)"></g><g id="g-root-tx_enforces_hteop31gs7761-stroke" data-item-order="0" transform="translate(302, 458)"></g><g id="g-root-tx_6_1lt15zb1gs5qfi-stroke" data-item-order="0" transform="translate(164, 248)"></g><g id="g-root-tx_conducto_1uo1p531gs5ssl-stroke" data-item-order="0" transform="translate(374, 170)"></g><g id="g-root-ic_lock_2r5af1gs76df-stroke" data-item-order="0" transform="translate(182, 530)"><g id="ic_lock_2r5af1gs76df-stroke" fill="none" stroke-linecap="round" stroke-linejoin="round" stroke-miterlimit="4" stroke="#f4f4f4" stroke-width="2"><g><path d="M 41 41C 45.400002 42.599998 50.400002 41.799999 55 41C 55 41 56.799999 41 57 43C 57.200001 47 55.599998 51.200001 57 55C 57 55 57 56.799999 55 57C 50.400002 57.400002 45.400002 58.599998 41 57C 41 57 38.799999 57 39 55C 39.599998 51 39 47 39 43C 39 43 39 40.799999 41 41M 48 33C 44.799999 32.799999 41.799999 35.599998 42 39C 42 39.599998 42.200001 40.400002 42 41C 45.799999 42 50 40.599998 54 41C 54 40.400002 54 39.599998 54 39C 53.799999 35.599998 51.200001 32 48 33M 45.599998 49.200001C 45 50.400002 46.599998 51.599998 48 51.599998C 49.400002 51.599998 50.799999 50.400002 50.599998 49.200001C 50.200001 47.799999 49.400002 47 48 46.599998C 46.599998 46.200001 45.799999 47.799999 45.599998 49.200001M 31.4 29.4C 33.799999 29.799999 35.799999 28.4 38.200001 28C 38.400002 27.799999 38.599998 27.6 38.599998 27.200001C 38.599998 27 38.599998 26.6 38.400002 26.4C 37.599998 25.6 38.400002 23.799999 36.799999 20.6C 33.799999 14.2 31.6 11.4 27.4 11C 23.4 10.6 17.200001 13.6 18.200001 20.6C 18.6 24.200001 17.6 25.799999 16.6 26.4C 16.4 26.6 16.200001 27 16.4 27.200001C 16.4 27.6 16.6 27.799999 16.799999 28C 19.200001 28.4 21.4 28.799999 23.6 29.4M 38 34.200001C 36.799999 33 34.599998 32.200001 32.400002 32C 31.799999 32 31.200001 31.200001 31.4 30.799999C 31.6 29.799999 31.200001 29 31.4 28C 31.4 27.799999 31.4 27.200001 31.799999 27C 33 26.4 33 25 33.400002 23.6C 33 22.4 33 21 33.400002 19.799999C 31 19.6 29.4 17.799999 27.4 16.4C 26.4 18.4 24 19.200001 21.6 19.799999C 21.6 21 21.200001 22.4 21.6 23.6C 21.200001 24.799999 22.200001 26.200001 23.200001 27C 23.4 27.4 23.6 27.799999 23.6 28C 23.799999 29 23.4 29.799999 23.6 30.799999C 23.6 31.200001 23.200001 31.799999 22.6 32C 18 35.200001 13.4 35.400002 12.4 37.400002C 11.6 39.200001 10.6 41.200001 11 43C 19 43 27.200001 41.599998 35 43"></path><path d="M 41 41.001999L 55 41.001999C 55 41.001999 57 41.001999 57 43.001999L 57 55C 57 55 57 57 55 57L 41 57C 41 57 39 57 39 55L 39 43.001999C 39 43.001999 39 41.001999 41 41.001999M 48 33L 48 33C 44.686291 33 42 35.686295 42 39L 42 41L 54 41L 54 39C 54 35.686295 51.313709 33 48 33ZM 45.5 49.125999C 45.5 50.506714 46.619289 51.625999 48 51.625999C 49.380711 51.625999 50.5 50.506714 50.5 49.125999C 50.5 47.745289 49.380711 46.625999 48 46.625999C 46.619289 46.625999 45.5 47.745289 45.5 49.125999M 31.364 29.384001C 33.736435 29.648733 36.13031 29.129639 38.18 27.906C 38.421547 27.762133 38.588612 27.520359 38.637756 27.243542C 38.686897 26.966724 38.613266 26.682219 38.435997 26.463999C 37.620003 25.501999 37.052002 24.226 36.802002 20.529999C 36.323997 13.48 31.57 11 27.483999 11C 23.397999 11 18.644001 13.48 18.167999 20.529999C 17.917999 24.223999 17.35 25.501999 16.534 26.464001C 16.356733 26.682219 16.2831 26.966724 16.332243 27.243542C 16.381386 27.520359 16.548452 27.762133 16.789999 27.905998C 18.838049 29.128208 21.229557 29.647245 23.599998 29.383999M 38 34.243999C 36.400002 33.549999 34.472 32.844002 32.306 32.043999C 31.748569 31.836649 31.376989 31.306726 31.372 30.712L 31.372 28.09C 31.369684 27.71007 31.528044 27.346859 31.807999 27.089998C 32.846092 26.240335 33.404465 24.937714 33.304001 23.6L 33.304001 19.728001C 31.023767 19.335838 28.959236 18.140396 27.483999 16.358C 26.009846 18.140671 23.945816 19.336233 21.666 19.728001L 21.666 23.6C 21.569456 24.937063 22.130733 26.237253 23.17 27.084C 23.449955 27.340858 23.608315 27.704071 23.605999 28.084L 23.605999 30.702C 23.601013 31.296726 23.229431 31.826649 22.672001 32.034C 17.354 34.003998 13.446 35.405998 12.434 37.433998C 11.570074 39.167908 11.081447 41.064491 11 43L 35 43"></path></g></g></g><g id="g-root-tx_startwit_dfgltz1gs8kcl-stroke" data-item-order="0" transform="translate(230, 752)"></g><g id="g-root-tx_3_de7nnr1gs74si-stroke" data-item-order="0" transform="translate(92, 536)"></g><g id="g-root-tx_implemen_1ur62kn1gs77d1-stroke" data-item-order="0" transform="translate(278, 554)"></g><g id="g-root-tx_regulars_8ye5jb1gs5res-stroke" data-item-order="0" transform="translate(374, 134)"></g><g id="g-root-ic_page_i09wnb1gs4e17-stroke" data-item-order="0" transform="translate(278, 146)"><g id="ic_page_i09wnb1gs4e17-stroke" fill="none" stroke-linecap="round" stroke-linejoin="round" stroke-miterlimit="4" stroke="#f4f4f4" stroke-width="2"><g><path d="M 34 50.599998C 27.200001 52.200001 20 50.799999 13 50.599998C 11.8 50.400002 11 49.599998 11 48.599998C 11.4 37.799999 8 26.799999 11 16.6C 11.4 15.4 12 14.4 13 14.6C 25.4 16.799999 38.400002 14.6 51 14.6C 52.200001 14.4 53.200001 15.4 53 16.6C 52 21 52.799999 25.799999 53 30.4M 15 31.6C 15.8 32 16.4 32.799999 17 33.599998C 18.200001 31 20.799999 29.4 23 27.6M 26 32.599998C 28.4 32.400002 30.6 32.200001 33 32.599998M 29 28.6C 31 28.799999 33 28 35 28.6M 11 22.6C 24.799999 24.799999 39 23.4 53 22.6M 35 39.599998C 33.400002 44.400002 39.200001 49.599998 44 48.599998C 49 47.599998 51.200001 44.200001 53.200001 39.599998C 55 35 49 31.6 44 30.4C 39.200001 29.4 33.200001 35 35 39.599998M 57 52.599998C 55.200001 50 52 48.799999 50.599998 46"></path><path d="M 34 50.5L 13 50.5C 11.895431 50.5 11 49.604568 11 48.5L 11 16.5C 11 15.395431 11.895431 14.5 13 14.5L 51 14.5C 52.104568 14.5 53 15.395431 53 16.5L 53 30.299999M 15 31.5L 17 33.5L 23 27.5M 26 32.5L 33 32.5M 29 28.5L 35 28.5M 11 22.5L 53 22.5M 35 39.557999C 35 44.560593 39.055405 48.615997 44.057999 48.615997C 49.060593 48.615997 53.115997 44.560593 53.115997 39.557999C 53.115997 34.555405 49.060593 30.5 44.057999 30.5C 39.055405 30.5 35 34.555405 35 39.557999ZM 57 52.5L 50.504002 46.004002"></path></g></g></g><g id="g-root-tx_2_1hgc1af1gs75s6-stroke" data-item-order="0" transform="translate(68, 632)"></g><g id="g-root-ic_dele_18kp11j1gs76kv-stroke" data-item-order="0" transform="translate(158, 626)"><g id="ic_dele_18kp11j1gs76kv-stroke" fill="none" stroke-linecap="round" stroke-linejoin="round" stroke-miterlimit="4" stroke="#f4f4f4" stroke-width="2"><g><path d="M 25.4 33.200001C 33.200001 26 39.200001 16.6 48 11M 48 23.6C 47 19.6 49 15.2 48 11C 43.799999 12 39.200001 9.4 35.200001 11M 30.799999 20C 25 22 18.6 19.4 12.4 20C 11.6 20 11.2 20.6 11 21.4C 8.4 29.4 10.4 38.200001 11 46.599998C 11 47 11.2 47.400002 11.4 47.599998C 11.8 47.799999 12 48 12.4 48C 17.4 46.599998 22.799999 48 28 48"></path><path d="M 25.478001 33.158001L 48 11M 48 23.661999L 48 11L 35.129997 11M 30.799999 20L 12.4 20C 11.626801 20 11 20.626801 11 21.4L 11 46.599998C 10.999981 46.973743 11.149401 47.331974 11.414988 47.594933C 11.680574 47.857891 12.040277 48.003738 12.414 48L 28 48"></path></g></g></g><g id="g-root-tx_removeun_1qf3eyv1gs75e0-stroke" data-item-order="0" transform="translate(254, 620)"></g><g id="g-root-tx_eliminat_1lz9wuf1gs7669-stroke" data-item-order="0" transform="translate(254, 656)"></g><g id="g-root-tx_7_qvwww71gs4d8i-stroke" data-item-order="0" transform="translate(188, 152)"></g><g id="g-root-tx_achievin_vbqf0n1gs4cg9-stroke" data-item-order="0" transform="translate(158, 38)"></g><g id="g-root-tx_1_18nteh31gs77r6-stroke" data-item-order="0" transform="translate(50, 728)"></g><g id="g-root-ic_4_zit9xj1gs8jyj-stroke" data-item-order="0" transform="translate(134, 722)"><g id="ic_4_zit9xj1gs8jyj-stroke" fill="none" stroke-linecap="round" stroke-linejoin="round" stroke-miterlimit="4" stroke="#f4f4f4" stroke-width="2"><g><path d="M 52.200001 14.8C 47 11.2 40 9 34 11C 27.799999 11.4 21.6 12.2 15.8 14.8C 14.6 15.2 14.4 16.4 14 17.6C 12.6 22.4 15.4 27.799999 14 32.799999C 11.4 42.599998 20 52.799999 29.799999 55.799999C 30.4 56 31.200001 56.200001 32 56.599998C 33.200001 57.400002 34.799999 57.400002 36.200001 56.599998C 36.799999 56.200001 37.400002 55.799999 38.200001 55.799999C 48.400002 55 57.200001 42.400002 54 32.799999C 52.400002 28 54.400002 22.6 54 17.6C 53.799999 16.4 53.400002 15 52.200001 14.8M 46.400002 39.200001C 40.200001 31.4 31.799999 25.799999 25.4 18.200001M 20 23.200001C 27.799999 30 34.599998 37.799999 42 45.200001M 46.799999 19.6C 42.599998 18.200001 38.400002 16.200001 34 17C 29.6 16.799999 25.4 18.200001 21.200001 19.6C 20.4 19.799999 20.200001 20.799999 20 21.6C 19.4 25 21 28.799999 20 32.200001C 18.200001 39 24.200001 46.400002 31 48.200001C 31.6 48.200001 32 48.400002 32.599998 48.799999C 33.400002 49.200001 34.400002 48.799999 35.400002 48.799999C 36 48.599998 36.599998 48.400002 37 48.200001C 42.400002 43.599998 48.200001 39.200001 48 32.200001C 48 28.6 48.200001 25.200001 48 21.6C 48 20.799999 47.599998 19.6 46.799999 19.6"></path><path d="M 52.209999 14.74C 46.468273 12.233797 40.264732 10.959704 34 11C 27.738634 10.961103 21.538645 12.235167 15.8 14.74C 14.698513 15.23992 13.993584 16.340391 14 17.549999L 14 32.823997C 13.999434 42.993134 20.262436 52.112137 29.754 55.762001L 31.902 56.59C 33.248985 57.13488 34.755016 57.13488 36.101997 56.59L 38.25 55.762001C 47.73999 52.11084 54.001202 42.99213 54 32.823997L 54 17.549999C 54.008194 16.342728 53.307579 15.242884 52.209999 14.74ZM 46.464001 39.211998L 25.388 18.136M 20 23.25L 41.936001 45.186001M 46.754002 19.6C 42.72863 17.859333 38.385525 16.973957 34 17C 29.614473 16.973957 25.271368 17.859333 21.245998 19.599998C 20.482374 19.949432 19.994682 20.714239 20 21.554001L 20 32.18C 20.035892 39.269188 24.423553 45.607979 31.046001 48.138L 32.540001 48.714001C 33.476486 49.092751 34.523514 49.092751 35.459999 48.714001L 36.954002 48.138C 43.576447 45.607979 47.964108 39.269188 48 32.18L 48 21.554001C 48.005318 20.714239 47.517628 19.949432 46.754002 19.6Z"></path></g></g></g><g id="g-root-tx_secureba_qqan471gs8lxg-stroke" data-item-order="0" transform="translate(230, 716)"></g><g id="g-root-tx_leastpri_5vipz1gs76rw-stroke" data-item-order="0" transform="translate(278, 518)"></g></g></g><path id="w4loujb1f417uq" d="M65.283 12.757a.35.35 0 0 0 .584.157l5.203-5.141-6.183 3.523.396 1.461zm-2.216-11.7a.35.35 0 0 0-.522.305v3.111l3.276-1.868-2.754-1.548zm3.728 2.105l-4.25 2.421v2.445l6.391-3.644-2.141-1.222zm4.708 3.303a.35.35 0 0 0 0-.609l-1.592-.9-7.365 4.199v1.782a.35.35 0 0 0 .523.305l8.435-4.777z M44.542 2.513c0-.433.355-.783.792-.783s.792.35.792.783-.355.783-.792.783-.792-.35-.792-.783zm59.171 0c0-.433.355-.783.792-.783s.792.35.792.783-.355.783-.792.783-.792-.35-.792-.783zm-85.951 7.636h-1.27v-.487c-.276.201-.864.609-1.881.609-1.202 0-2.274-.794-2.137-2.078.118-1.106 1.153-1.584 1.848-1.727l2.17-.345c0-.539-.29-.956-1.064-1.006s-1.21.305-1.571 1.017l-1.124-.605c1.218-2.631 5.029-1.764 5.029.414v4.207zm-1.27-2.86c.006.396-.062 1.112-.819 1.59-.587.37-1.841.299-1.903-.395-.049-.555.461-.791.906-.898l1.816-.297zm72.662 2.86h-1.27v-.487c-.276.201-.864.609-1.881.609-1.202 0-2.274-.794-2.137-2.078.118-1.106 1.153-1.584 1.848-1.727l2.17-.345c0-.539-.29-.956-1.064-1.006s-1.21.305-1.571 1.017l-1.124-.605c1.218-2.631 5.029-1.764 5.029.414v4.207zm-1.27-2.86c.006.396-.062 1.112-.82 1.59-.587.37-1.841.299-1.903-.395-.049-.555.461-.791.906-.898l1.816-.297zM99.096 10.149H97.85v-8.45h1.246v4.895l2.68-2.559h1.738l-2.633 2.535 2.715 3.578h-1.556l-2.077-2.707-.867.844v1.863zm6.053-6.114h-1.255v6.113h1.255V4.035zm-59.2 0h-1.255v6.113h1.255V4.035zm5.584 6.113V1.697h1.255v2.695c.361-.346 1-.485 1.47-.485 1.452 0 2.477 1.082 2.457 2.448v3.792h-1.27v-3.68c0-.408-.214-1.339-1.315-1.339-.968 0-1.342.756-1.342 1.339v3.681h-1.255zm-4.76-4.894V4.039h.621a.45.45 0 0 0 .45-.45v-.855h1.251v1.305h1.309v1.215h-1.309v3.109c0 .293.105.664.648.664.365 0 .531-.035.736-.07v1.137s-.361.113-.857.113c-1.398 0-1.777-1.051-1.777-1.788V5.254h-1.071zM36.528 4.039h-1.394l2.191 6.106h1.125l1.234-3.918 1.238 3.918h1.129l2.188-6.106h-1.383l-1.359 3.93-1.256-3.93h-1.124l-1.242 3.957-1.348-3.957zM26.212 7.141c-.02 1.566 1.187 3.129 3.223 3.129 1.566 0 2.383-.918 2.734-1.719L31.172 8c-.315.399-.801 1.094-1.738 1.094-1.145 0-1.825-.781-1.891-1.52h4.625c.074-.284.148-.995-.03-1.559-.336-1.064-1.221-2.102-2.839-2.102s-3.088 1.152-3.088 3.227zm1.363-.75h3.348c-.055-.43-.566-1.301-1.623-1.301a1.79 1.79 0 0 0-1.725 1.301zm-8.758.75c.038 1.758 1.277 3.133 3.145 3.133 1.074 0 1.723-.477 1.961-.672v.547h1.242V1.703h-1.258v2.888c-.414-.36-1.062-.68-1.93-.68-1.91 0-3.198 1.473-3.16 3.23zm1.309-.08c0 1.119.723 1.978 1.836 1.978a1.88 1.88 0 0 0 1.94-1.904c0-1.371-1.011-1.99-1.972-1.99s-1.805.798-1.805 1.916zm76.683-.028C96.771 5.275 95.532 3.9 93.664 3.9c-1.074 0-1.723.477-1.961.672v-.547h-1.242v8.22h1.258V9.583c.414.36 1.063.68 1.93.68 1.91 0 3.198-1.473 3.16-3.23zm-1.309.08c0-1.119-.723-1.978-1.836-1.978a1.88 1.88 0 0 0-1.94 1.904c0 1.371 1.011 1.99 1.972 1.99S95.5 8.231 95.5 7.113zM106.441 10.173V4.036h1.254v.382c.361-.346 1-.485 1.47-.485 1.452 0 2.477 1.082 2.457 2.448v3.792h-1.27V6.492c0-.408-.214-1.339-1.315-1.339-.969 0-1.342.756-1.342 1.339v3.681h-1.254zm-30.383-.021V1.824h1.084l4.215 5.777V1.824h1.32v8.328h-1.094l-4.207-5.796v5.796h-1.319zM5.24 10.149H4V2.377h1.014l2.664 3.597 2.654-3.592h1.03v7.766h-1.256V4.762L7.678 8.068 5.24 4.742v5.407z" transform="translate(17, 821)" fill="#ababab88" stroke="none"></path></svg>